<?xml version="1.0" encoding="UTF-8"?>
<svg id="SVGDoc" width="195" height="23" xmlns="http://www.w3.org/2000/svg" version="1.1" xmlns:xlink="http://www.w3.org/1999/xlink" xmlns:avocode="https://avocode.com/" viewBox="0 0 195 23"><defs></defs><desc>Generated with Avocode.</desc><g><g clip-path="url(#clip-509252f5-7742-4da3-9335-6544fd81d6d4)"><title>Path 3377</title><path d="M174.62538,9.88685c0.72967,-1.34801 3.0795,-2.73887 11.09262,-2.7388c3.13297,0.13482 7.92049,1.24949 9.03078,1.08142c1.74897,-0.26668 -4.02837,-1.43988 -2.28113,-1.70944c-23.2399,-3.04623 -45.65071,-4.78623 -69.10277,-6.01534c-3.99193,0.07842 -19.45008,-0.44767 -35.64909,-0.45646c-16.19469,-0.23627 -33.13981,0.82627 -40.07269,1.12513l-1.25705,0.12398c-3.78139,0.35463 -7.96742,0.71924 -12.00166,1.32027c-4.03677,0.74101 -7.92044,1.31901 -11.09613,2.34819c-2.90319,0.95738 -5.84498,1.9854 -8.76098,3.25495c1.40241,-0.0653 2.69867,-0.12874 3.82386,-0.10756c-3.00874,0.70849 -6.01799,1.38784 -7.13947,2.05464c-6.30323,2.72516 -2.56445,2.40043 -0.02309,2.76423c0.86254,-0.00923 0.7851,0.30699 0.7805,0.61319c-8.81184,2.52698 -11.67431,4.77227 -11.67431,4.77227v0l6.3866,-0.13481c-0.81888,0.41954 -1.44427,0.80363 -1.79607,1.08383c-0.81777,0.67316 -0.22936,0.83199 2.48424,0.22777c-0.91438,0.36581 -2.0657,0.65413 -3.16446,1.10188c-1.07626,0.40653 -2.30386,0.9819 -2.91912,1.47077l0.01171,0.00562c0.62463,-0.42781 2.40093,-1.12353 3.24062,-1.49096c-1.05503,0.48197 -2.19409,0.99747 -3.06712,1.54624c0.09535,0.04499 0.35056,0.02887 0.53974,0.03139l2.38788,-1.01543c-0.68757,0.33853 -1.44737,0.62584 -2.0811,1.00717c0.59631,-0.05414 1.22579,-0.10886 1.88005,-0.16984c2.59819,-0.65759 5.21444,-0.75574 6.65241,-1.15984c4.84742,-1.34699 9.80993,-2.2791 14.79538,-3.03666l168.94424,-3.55243c-10.59147,-1.2466 -20.61411,-2.31363 -30.11637,-3.22357c1.88663,-0.36238 3.29601,-0.78931 2.39148,-1.56943c3.0058,0.35861 7.51784,0.89793 7.7605,0.44763z" fill="#ed3544" fill-opacity="1"></path></g></g></svg>