<?xml version="1.0" encoding="UTF-8"?>
<svg id="SVGDoc" width="393" height="26" xmlns="http://www.w3.org/2000/svg" version="1.1" xmlns:xlink="http://www.w3.org/1999/xlink" xmlns:avocode="https://avocode.com/" viewBox="0 0 393 26"><defs></defs><desc>Generated with Avocode.</desc><g><g><title>Path 3423</title><path d="M351.75064,14.31118c1.51868,-1.58183 6.30573,-3.18094 22.46307,-3.01516c6.31241,0.2245 15.92648,1.644 18.17117,1.46785c3.53595,-0.27975 -8.0719,-1.78906 -4.53937,-2.07226c-46.75275,-4.08929 -91.87967,-6.61401 -139.12411,-8.55503c-8.05196,0.01036 -39.20258,-0.93252 -71.86522,-1.2779c-32.64597,-0.61478 -66.85076,0.29357 -80.84045,0.50426l-2.53902,0.12088c-7.63711,0.34193 -16.09048,0.6873 -24.2461,1.31589c-8.16566,0.79437 -16.01686,1.39879 -22.45639,2.55235c-5.88757,1.07413 -11.85545,2.23115 -17.77982,3.67483c2.83006,-0.04836 5.44601,-0.09671 7.71406,-0.04836c-6.09163,0.7771 -12.18326,1.51967 -14.46804,2.28641c-12.80548,3.09804 -5.25533,2.79065 -0.14385,3.27419c1.73951,0.0069 1.57224,0.37991 1.55218,0.74256c-17.85675,2.81138 -23.70752,5.41209 -23.70752,5.41209v0l12.88242,-0.02763c-1.66592,0.48008 -2.94044,0.92216 -3.65966,1.24682c-1.67261,0.78055 -0.49175,0.98088 5.00109,0.3212c-1.8566,0.41446 -4.18821,0.73221 -6.41946,1.23992c-2.18443,0.45934 -4.67996,1.11557 -5.93776,1.682l0.02342,0.0069c1.27453,-0.49389 4.88067,-1.28135 6.58673,-1.69926c-2.14428,0.54916 -4.45917,1.1363 -6.23883,1.76834c0.19068,0.05526 0.70584,0.04146 1.08719,0.04835l4.85056,-1.15356c-1.3983,0.38683 -2.94045,0.71148 -4.2317,1.15011c1.20427,-0.0518 2.47546,-0.10361 3.79682,-0.16233c5.26202,-0.7253 10.54077,-0.78747 13.45445,-1.23646c9.82155,-1.49548 19.86054,-2.49709 29.93965,-3.29146l340.77695,-0.71492c-21.31241,-1.69581 -41.48404,-3.16713 -60.612,-4.44157c3.81686,-0.39028 6.67374,-0.8669 4.87738,-1.80979c6.04807,0.48698 15.12704,1.21919 15.63217,0.69076z" fill="#ed3544" fill-opacity="1"></path></g></g></svg>