<?xml version="1.0" encoding="UTF-8"?>
<svg id="SVGDoc" width="476" height="25" xmlns="http://www.w3.org/2000/svg" version="1.1" xmlns:xlink="http://www.w3.org/1999/xlink" xmlns:avocode="https://avocode.com/" viewBox="0 0 476 25"><defs></defs><desc>Generated with Avocode.</desc><g><g clip-path="url(#clip-ba4fda02-9e61-4aec-96a1-2e0e7a4cee56)"><title>Path 3090</title><path d="M425.41801,18.63122c1.86608,-1.53975 7.68942,-3.02759 27.24808,-2.52141c7.63847,0.35648 19.25349,1.97019 21.97418,1.84259c4.28576,-0.20326 -9.74156,-1.94834 -5.45983,-2.1551c-56.53208,-5.05147 -111.12295,-8.51389 -168.28757,-11.44105c-9.7486,-0.15987 -47.44594,-1.75509 -86.98424,-2.78853c-39.51344,-1.30079 -80.94053,-1.12102 -97.88134,-1.2073l-3.07607,0.06646c-9.25209,0.17837 -19.49247,0.34293 -29.3773,0.7952c-9.89985,0.61679 -19.41569,1.05147 -27.23197,2.06166c-7.14665,0.94292 -14.39195,1.96652 -21.58956,3.27588c3.42715,0.01176 6.5951,0.01899 9.34016,0.11497c-7.38855,0.64346 -14.77649,1.2526 -17.55595,1.96622c-15.55718,2.80785 -6.41097,2.66196 -0.23094,3.25046c2.10588,0.04362 1.8969,0.41074 1.86632,0.77067c-21.66772,2.41626 -28.7963,4.87689 -28.7963,4.87689v0l15.59707,0.24478c-2.02523,0.44184 -3.57595,0.8542 -4.45234,1.1616c-2.03855,0.74027 -0.61237,0.96429 6.04919,0.42486c-2.25495,0.37261 -5.08331,0.63907 -7.79348,1.09643c-2.65263,0.41028 -5.68532,1.00963 -7.21795,1.54589l0.02823,0.00735c1.55162,-0.46383 5.93119,-1.17012 8.00395,-1.54933c-2.60558,0.50038 -5.41837,1.03488 -7.58395,1.62532c0.2299,0.05894 0.85384,0.05611 1.31542,0.07102l5.89253,-1.04377c-1.69961,0.35483 -3.5723,0.64485 -5.14321,1.05342c1.4589,-0.02603 2.9988,-0.05065 4.59958,-0.08107c6.38325,-0.60952 12.77524,-0.55974 16.31059,-0.94432c11.91678,-1.27848 24.08823,-2.06161 36.30467,-2.63796l412.5871,6.49111c-25.77324,-2.13549 -50.16929,-4.02379 -73.30519,-5.6944c4.6278,-0.30715 8.09486,-0.72039 5.93637,-1.69528c7.31389,0.61172 18.29299,1.53116 18.91373,1.01674z" fill="#ed3544" fill-opacity="1"></path></g></g></svg>