<?xml version="1.0" encoding="UTF-8"?>
<svg id="SVGDoc" width="16" height="14" xmlns="http://www.w3.org/2000/svg" version="1.1"
     xmlns:xlink="http://www.w3.org/1999/xlink" xmlns:avocode="https://avocode.com/" viewBox="0 0 16 14">
    <defs></defs>
    <desc>Generated with Avocode.</desc>
    <g>
        <g>
            <title>Group 1550</title>
            <g>
                <title>Path 2087</title>
                <path d="M11.17726,12.88156c-2.07432,0 -3.76183,-1.68856 -3.76183,-3.76336c0,-2.07479 1.68751,-3.76336 3.76183,-3.76336c2.07395,0 3.76183,1.68856 3.76183,3.76336c0,2.07479 -1.68791,3.76336 -3.76183,3.76336zM4.99932,11.29266c-2.59847,0 -3.93837,-0.84355 -3.93837,-1.2034v-0.25198c0.97691,0.53707 2.46085,0.81483 3.93838,0.81483c0.55846,0 1.04321,-0.05538 1.50079,-0.12106c0.06392,0.21116 0.14409,0.41477 0.23479,0.61287c-0.47747,0.09695 -1.04575,0.14874 -1.73558,0.14874zM4.99933,1.55851c2.44318,0 3.93838,0.77906 3.93838,1.20303c0,0.42397 -1.49524,1.20302 -3.93838,1.20302c-2.44315,0 -3.93838,-0.77905 -3.93838,-1.20302c0,-0.42397 1.4952,-1.20303 3.93838,-1.20303zM6.55585,7.5415c-0.50567,0.07009 -1.00223,0.13148 -1.55652,0.13148c-2.59848,0 -3.93838,-0.84354 -3.93838,-1.2034v-0.34047c0.97691,0.53706 2.46085,0.81501 3.93838,0.81501c0.66528,0 1.29562,-0.04906 1.8762,-0.14342c-0.12726,0.23542 -0.23198,0.48421 -0.31968,0.74079zM1.06095,7.98338c0.97691,0.53729 2.46085,0.81528 3.93838,0.81528c0.47027,0 0.89655,-0.04072 1.3116,-0.09097c-0.01136,0.13567 -0.02079,0.27194 -0.02079,0.41051c0,0.10256 0.00911,0.20283 0.01538,0.30383c-0.40438,0.05697 -0.82892,0.1044 -1.3062,0.1044c-2.59848,0 -3.93838,-0.84282 -3.93838,-1.20266zM8.10637,5.31994c-0.01671,0.00495 -0.03384,0.00266 -0.05032,0.00925c-0.8,0.31992 -1.85712,0.48923 -3.05673,0.48923c-2.59848,0 -3.93838,-0.84282 -3.93838,-1.20266v-0.34053c0.97691,0.53715 2.46085,0.81505 3.93838,0.81505c1.47753,0 2.96148,-0.2779 3.93838,-0.81506v0.50235c-0.29572,0.15331 -0.57463,0.33424 -0.83134,0.54238zM11.17726,4.22914c-0.38383,0 -0.75571,0.04906 -1.11426,0.13316v-1.60075c-0.00004,-1.52879 -2.54723,-2.32874 -5.06367,-2.32874c-2.51644,0 -5.06363,0.79994 -5.06363,2.32874v7.32773c0,1.52879 2.5472,2.3291 5.06363,2.3291c0.96298,0 1.71892,-0.08882 2.35316,-0.26567c0.89605,1.12791 2.27601,1.85456 3.82474,1.85456c2.69445,0 4.88708,-2.19352 4.88708,-4.88906c0,-2.69588 -2.19266,-4.88907 -4.88704,-4.88907z"
                      fill="#22262a" fill-opacity="1"></path>
            </g>
            <g>
                <title>Path 2088</title>
                <path d="M12.58778,8.21203v0h-0.25042c0.18741,-0.65051 0.02513,-1.20822 -0.45939,-1.5322c-0.55191,-0.36879 -1.44229,-0.35308 -1.90721,0.03399c-0.15863,0.13231 -0.18019,0.3688 -0.04788,0.52742c0.13231,0.1579 0.36806,0.18056 0.52742,0.04752c0.17471,-0.14547 0.69665,-0.19737 1.01099,0.01316c0.07822,0.0519 0.3158,0.21126 0.17544,0.67765c-0.04797,0.09535 -0.09745,0.18152 -0.14849,0.23246h-1.80623c-0.20688,0 -0.37428,0.1674 -0.37428,0.37428c0,0.20688 0.1674,0.37428 0.37428,0.37428h2.90577c0.20688,0 0.37428,-0.1674 0.37428,-0.37428c0,-0.20688 -0.16739,-0.37427 -0.37429,-0.37427z"
                      fill="#22262a" fill-opacity="1"></path>
            </g>
            <g>
                <title>Path 2089</title>
                <path d="M12.58778,9.19007v0h-2.90577c-0.20688,0 -0.37428,0.1674 -0.37428,0.37428c0,0.20688 0.1674,0.37428 0.37428,0.37428h0.25078c-0.18741,0.65051 -0.02476,1.20822 0.45976,1.5322c0.26609,0.17837 0.61259,0.26682 0.95105,0.26682c0.36185,0 0.71566,-0.10088 0.95616,-0.30118c0.15863,-0.13158 0.17983,-0.3677 0.04752,-0.52706c-0.13158,-0.1579 -0.36697,-0.17983 -0.52706,-0.04752c-0.17471,0.14401 -0.69812,0.19737 -1.01172,-0.01316c-0.07822,-0.0519 -0.3158,-0.21126 -0.17398,-0.67911c0.04943,-0.09887 0.09709,-0.18129 0.1468,-0.231h1.80647c0.20687,0 0.37428,-0.1674 0.37428,-0.37428c0,-0.20688 -0.16738,-0.37428 -0.37428,-0.37428z"
                      fill="#22262a" fill-opacity="1"></path>
            </g>
        </g>
    </g>
</svg>