<?xml version="1.0" encoding="UTF-8"?>
<svg id="SVGDoc" width="36" height="29" xmlns="http://www.w3.org/2000/svg" version="1.1" xmlns:xlink="http://www.w3.org/1999/xlink" xmlns:avocode="https://avocode.com/" viewBox="0 0 36 29"><defs></defs><desc>Generated with Avocode.</desc><g><g><title>Group 1580</title><g><title>Path 2119</title><path d="M33.9168,13.3497c0,4.06738 -2.51724,7.00915 -6.98667,8.27814c-0.04599,-0.00283 -0.08869,-0.01159 -0.13616,-0.01159h-0.14408c1.16497,-1.58621 1.81531,-3.48493 1.81531,-5.62834v-1.23099c0,-0.16128 -0.05565,-0.96717 -1.14391,-0.96717h-2.34746c0.22878,-0.26414 0.45769,-0.60422 0.48745,-1.05528h8.45552zM2.08268,15.9879v-0.6152l24.7996,0.00103v0.61421c0,6.25698 -6.2276,9.05801 -12.4001,9.05801c-6.17188,-0.00005 -12.3995,-2.80105 -12.3995,-9.05805zM4.83579,12.0548c-0.02319,-0.10512 -0.05616,-0.253 -0.04328,-0.37254c0.05462,-0.02267 0.12418,-0.04741 0.17674,-0.06647c0.08631,-0.03137 0.17977,-0.06731 0.27522,-0.10705c0.23168,0.3996 0.50709,0.79507 0.84859,1.17057c0.38517,0.42356 0.8209,0.79307 1.30429,1.11042h-2.83395c0.1162,-0.15652 0.22318,-0.33242 0.293,-0.54155c0.14685,-0.44057 0.0541,-0.85798 -0.02061,-1.19337zM9.7726,8.9791c0.62194,0.49505 1.11557,1.14301 1.49346,1.92326c0.02795,0.1093 0.07562,0.20617 0.1428,0.29113c0.20102,0.47212 0.35902,0.993 0.47708,1.55793l-2.28131,-2.40788c-0.3004,-0.31689 -0.80177,-0.33081 -1.11866,-0.0304c-0.31741,0.3004 -0.33081,0.80177 -0.0304,1.11866l1.77254,1.8709c-1.22893,-0.31709 -2.2198,-0.87494 -2.95355,-1.67664c-1.1928,-1.30364 -1.45346,-2.96991 -1.50119,-3.87602c0.91104,-0.02004 2.60164,0.11776 3.99924,1.22906zM15.12001,5.6092c0,0 0,0 -0.00001,0c0,0 0,0 0,0zM15.1439,13.78969h-0.10473l0.5793,-4.20103c0.05926,-0.43334 -0.24321,-0.83268 -0.67604,-0.89245c-0.43129,-0.05513 -0.83268,0.24321 -0.89246,0.67604l-0.5069,3.67616c-0.15033,-0.96839 -0.39418,-1.84636 -0.74096,-2.62126c-0.1155,-2.38244 1.47599,-4.09094 2.31789,-4.81795c1.01213,1.13496 3.10104,4.27014 0.0239,8.18049zM18.14651,11.37309c0,0 0,0.00001 0,0.00001c0,0 -0.00001,0 -0.00001,0zM18.82595,11.31436c0.04174,-0.0067 0.09223,-0.01443 0.14119,-0.02113c0.017,0.05359 0.03452,0.10975 0.04844,0.15561c0.10254,0.33287 0.2293,0.74715 0.53537,1.05374c0.30813,0.30762 0.69871,0.43798 1.012,0.54258c0.05771,0.01906 0.12779,0.04277 0.19374,0.06647c-0.00618,0.04122 -0.01237,0.08193 -0.01752,0.11697c-0.02609,0.16972 -0.05417,0.36018 -0.06138,0.56113h-3.58457c0.52529,-0.83834 0.86279,-1.64733 1.05329,-2.41663c0.24495,0.0029 0.47726,-0.02795 0.67944,-0.05874zM18.2824,7.5168c0.07317,-0.06647 0.17468,-0.1587 0.24527,-0.20972c0.07008,0.0505 0.17159,0.14325 0.24475,0.20972c0.23084,0.21075 0.51888,0.47302 0.91152,0.6039c0.44417,0.1484 0.85845,0.0541 1.19337,-0.02061c0.13294,-0.02937 0.3205,-0.08244 0.37718,-0.07162l0.05462,0.03658c0.01958,0.06647 0.04019,0.16283 0.05565,0.23342c0.07008,0.32256 0.15767,0.72344 0.47302,1.03828c0.30607,0.30607 0.72035,0.43334 1.05322,0.53537c0.04844,0.01494 0.10718,0.03246 0.16179,0.0505c-0.00824,0.0809 -0.02061,0.17056 -0.02988,0.24166c-0.05565,0.41325 -0.11748,0.88112 0.03092,1.3258c0.13088,0.39212 0.39264,0.67965 0.60287,0.91049c0.06595,0.07317 0.15973,0.17519 0.21023,0.24578c-0.0505,0.07059 -0.14428,0.17262 -0.21023,0.24579c-0.20759,0.22794 -0.46362,0.51295 -0.59611,0.89761h-0.79739c0.00818,-0.10467 0.02576,-0.22492 0.04038,-0.31999c0.05668,-0.36636 0.12057,-0.78115 -0.07832,-1.17792l-0.1484,-0.20457c-0.3071,-0.30865 -0.69871,-0.43901 -1.01303,-0.54361c-0.13603,-0.04535 -0.34214,-0.11439 -0.38233,-0.14788c-0.04534,-0.06132 -0.11233,-0.27979 -0.15252,-0.41067c-0.12469,-0.40707 -0.28031,-0.91358 -0.76879,-1.15731c-0.39367,-0.19787 -0.80847,-0.13397 -1.17534,-0.07781c-0.0686,0.01056 -0.1511,0.02261 -0.23136,0.03201c0.00689,-0.74695 -0.11278,-1.44032 -0.30272,-2.07076c0.07862,-0.06604 0.16382,-0.13274 0.23162,-0.19444zM34.5331,11.1515h-9.86802c-0.05339,-0.06473 -0.09706,-0.12457 -0.10975,-0.16283c-0.03195,-0.10254 0.01134,-0.42304 0.03607,-0.61472c0.05668,-0.42201 0.11542,-0.85845 -0.07935,-1.24799c-0.24424,-0.48745 -0.75024,-0.64255 -1.15731,-0.76724c-0.12985,-0.03968 -0.3442,-0.10666 -0.36378,-0.09842c-0.02473,-0.04689 -0.05771,-0.19787 -0.07935,-0.29834c-0.07935,-0.36584 -0.22363,-1.03106 -0.86566,-1.30416c-0.55031,-0.31638 -1.12433,-0.18962 -1.51181,-0.10254c-0.12057,0.02679 -0.28237,0.07575 -0.34936,0.06389c-0.07523,-0.02525 -0.23187,-0.16798 -0.34626,-0.27207c-0.29989,-0.27361 -0.71005,-0.64822 -1.31086,-0.64822c-0.48391,0 -0.84093,0.24244 -1.11982,0.48017c-0.75204,-1.38035 -1.68192,-2.20247 -1.70491,-2.22231c-0.01198,-0.01031 -0.02724,-0.01282 -0.03968,-0.02229c-0.04521,-0.03465 -0.09404,-0.05758 -0.14479,-0.08141c-0.04341,-0.02042 -0.08425,-0.04296 -0.12985,-0.05501c-0.05107,-0.01365 -0.10215,-0.01494 -0.15503,-0.01829c-0.04837,-0.0029 -0.09468,-0.00831 -0.14267,-0.00238c-0.05088,0.00612 -0.09816,0.02402 -0.14775,0.04026c-0.04959,0.01623 -0.09752,0.03092 -0.14357,0.05694c-0.01436,0.00812 -0.03072,0.00863 -0.04477,0.01778c-0.12753,0.08283 -2.52368,1.68166 -3.30342,4.49287c-0.21693,-0.22956 -0.44533,-0.44713 -0.69304,-0.64429c-2.55525,-2.0343 -5.76953,-1.52624 -5.9035,-1.50357c-0.01565,0.00258 -0.02731,0.01275 -0.04257,0.01623c-0.06731,0.01456 -0.12708,0.04019 -0.18672,0.07111c-0.03117,0.01617 -0.06248,0.02956 -0.09088,0.04953c-0.05211,0.03665 -0.09436,0.08071 -0.13616,0.12895c-0.02679,0.03053 -0.0534,0.05868 -0.07523,0.09281c-0.0286,0.04541 -0.04734,0.0943 -0.06647,0.14557c-0.01861,0.04863 -0.0353,0.09558 -0.04399,0.14769c-0.00316,0.01887 -0.01417,0.0342 -0.01597,0.05352c-0.00844,0.0883 -0.1254,1.48953 0.40404,3.12005c-0.05881,0.02338 -0.12154,0.04683 -0.16959,0.06434c-0.3375,0.1216 -0.79868,0.28855 -0.98417,0.67295c-0.38388,0.57556 -0.24682,1.19131 -0.15613,1.5989c0.02679,0.12109 0.0675,0.30453 0.06389,0.34833c-0.02525,0.07523 -0.16798,0.23187 -0.27207,0.34626c-0.1665,0.18254 -0.36159,0.41364 -0.49569,0.69614h-0.94398c-1.08826,0 -1.14339,0.80589 -1.14339,0.96717v1.23099c0,4.51464 2.83716,7.9691 7.46626,9.6013c-0.32771,0.30897 -0.51882,0.75765 -0.51882,1.30345c0,1.05528 0.70354,1.75876 1.75882,1.75876h10.5528c1.05528,0 1.75876,-0.70348 1.75876,-1.75876c0,-0.54587 -0.19104,-0.99454 -0.51882,-1.30351c0.39335,-0.13874 0.77278,-0.29068 1.13946,-0.45531h4.65576c1.05528,0 1.75883,-0.70354 1.75883,-1.75882c0,-0.21255 -0.03562,-0.4061 -0.08979,-0.58722c4.46247,-1.64256 7.03671,-5.01349 7.03671,-9.43808v-1.23099c0.00006,-0.4756 -0.36174,-0.9672 -0.96664,-0.9672z" fill="#ffffff" fill-opacity="1"></path></g><g><title>Path 2120</title><path d="M29.907,8.369c-0.12779,0.41789 0.10718,0.85999 0.52455,0.9883c0.07729,0.0237 0.15561,0.03452 0.2329,0.03452c0.33802,0 0.65028,-0.21796 0.75539,-0.55804c0.08141,-0.26485 0.77394,-2.63717 -0.04844,-4.28038c-0.68016,-1.35981 -0.0134,-2.78093 0.00206,-2.81288c0.19271,-0.39058 0.03401,-0.8636 -0.35657,-1.05837c-0.39161,-0.19477 -0.86463,-0.03607 -1.06146,0.35399c-0.04328,0.08657 -1.04395,2.13684 0,4.22525c0.45756,0.91521 0.11946,2.55371 -0.04844,3.10761z" fill="#ffffff" fill-opacity="1"></path></g><g><title>Path 2121</title><path d="M26.9173,8.3696c-0.12779,0.41789 0.10718,0.85999 0.52558,0.98778c0.07729,0.0237 0.15458,0.03452 0.23187,0.03452c0.33802,0 0.65131,-0.21796 0.75539,-0.55856c0.08141,-0.26485 0.77188,-2.63614 -0.04844,-4.27987c-0.67913,-1.35775 -0.01546,-2.77733 0.00103,-2.81237c0.19374,-0.39058 0.03504,-0.8636 -0.35451,-1.05889c-0.3947,-0.19477 -0.86669,-0.03607 -1.0625,0.35399c-0.04328,0.08605 -1.04498,2.13684 0,4.22473c0.45757,0.91566 0.11957,2.55416 -0.04843,3.10866z" fill="#ffffff" fill-opacity="1"></path></g><g><title>Path 2122</title><path d="M5.55975,17.1447c-0.13758,-0.41428 -0.5869,-0.63276 -1.00118,-0.50085c-0.4148,0.13915 -0.63842,0.58635 -0.50033,1.00165c0.5431,1.6293 1.47368,2.87214 2.92882,3.91093c0.13964,0.09996 0.30041,0.14737 0.45963,0.14737c0.24682,0 0.49002,-0.11542 0.64461,-0.33184c0.25403,-0.35554 0.17159,-0.8502 -0.18395,-1.10372c-1.18565,-0.84604 -1.90961,-1.80964 -2.34759,-3.12354z" fill="#ffffff" fill-opacity="1"></path></g></g></g></svg>