<?xml version="1.0" encoding="UTF-8"?>
<svg id="SVGDoc" width="26" height="22" xmlns="http://www.w3.org/2000/svg" version="1.1" xmlns:xlink="http://www.w3.org/1999/xlink" xmlns:avocode="https://avocode.com/" viewBox="0 0 26 22"><defs></defs><desc>Generated with Avocode.</desc><g><g><title>Path 2090</title><path d="M23.3,17.6h-7.4c0.7,-1.4 0.7,-3 0,-4.4h4.4c1.9,0 3,1.1 3.6,3.5c0.2,0.4 -0.1,0.9 -0.6,0.9zM18.9,20.5c-1,0 -1.8,-0.6 -2.1,-1.5h4.2c-0.3,0.9 -1.1,1.5 -2.1,1.5zM15.2,11.7v-0.7c0,-0.4 0.3,-0.7 0.7,-0.7c0.5,0 4.6,0 5.1,0c0.4,0 0.7,0.3 0.7,0.7c0,0.4 -0.3,0.7 -0.7,0.7c-0.6,0 -5.2,0 -5.8,0zM16.7,4.4h7.3v3.7c0,0.4 -0.3,0.7 -0.7,0.7c-0.2,0 -5.6,0 -5.9,0c-0.4,0 -0.7,-0.3 -0.7,-0.7zM16.7,2.2c0,-0.4 0.3,-0.7 0.7,-0.7h5.9c0.4,0 0.7,0.3 0.7,0.7v0.7h-7.3zM9.3,13.3c-0.8,-0.8 -1.8,-1.3 -3,-1.5l1.3,-4.4c1,0.2 1.7,1.1 1.7,2.1zM9.3,17.6h-1.5c-0.3,-1.7 -1.8,-2.9 -3.6,-2.9c-0.6,0 -1.2,0.2 -1.8,0.4c0.6,-1.1 1.8,-1.9 3.2,-1.9c2,0 3.7,1.6 3.7,3.7zM5.3,20.2c-1.7,0.9 -3.3,-0.3 -3.3,-1.9c0,-1.2 1,-2.2 2.2,-2.2c1.2,0 2.2,1 2.2,2.2c0,0.9 -0.5,1.6 -1.1,1.9zM6.4,4.4h0.7c0.4,0 0.7,0.3 0.7,0.7v0.7c-0.5,0 -0.9,0 -1.5,0zM22.8,12.3c0.3,-0.4 0.5,-0.8 0.5,-1.4c0,-0.3 0,-0.5 -0.1,-0.7h0.1c1.2,0 2.2,-1 2.2,-2.2v-5.8c0,-1.2 -1,-2.2 -2.2,-2.2h-5.9c-1.2,0 -2.2,1 -2.2,2.2v5.9c0,0.3 0.1,0.6 0.2,0.8c-0.9,0.3 -1.6,1.1 -1.6,2.1v1.5c0,0.2 0.1,0.4 0.2,0.5c1.3,1.3 1.3,3.3 0.2,4.6h-3.4v-8c0,-0.8 -0.3,-1.6 -0.7,-2.2h1.5c0.4,0 0.7,-0.3 0.7,-0.7c0,-0.4 -0.3,-0.7 -0.7,-0.7h-2.2v-0.9c0,-1.2 -1,-2.2 -2.2,-2.2h-1.6c-0.4,0 -0.7,0.3 -0.7,0.7v2.9c0,0.4 0.3,0.7 0.7,0.7h0.5l-1.4,4.5c-2.4,0.4 -4.2,2.5 -4.2,5.1v1.5c0,2.1 1.7,3.7 3.7,3.7c1.8,0 3.3,-1.1 3.6,-2.9c0.2,0 7,0 7.6,0c0.3,1.7 1.8,2.9 3.6,2.9c1.8,0 3.2,-1.3 3.6,-2.9h0.8c1.3,0 2.4,-1.4 2,-2.8c-0.5,-2.2 -1.5,-3.3 -2.6,-4z" fill="#22262a" fill-opacity="1"></path></g></g></svg>