<?xml version="1.0" encoding="UTF-8"?>
<svg id="SVGDoc" width="118" height="117" xmlns="http://www.w3.org/2000/svg" version="1.1" xmlns:xlink="http://www.w3.org/1999/xlink" xmlns:avocode="https://avocode.com/" viewBox="0 0 118 117"><defs><mask id="Mask1045" x="-1" y="-1" width="2" height="2"><rect width="96" height="96" x="11" y="9" fill="#ffffff"></rect><path d="M99.268,86.31592c-0.87203,1.5104 -1.81646,2.96396 -2.80422,4.36245c-0.35952,0.25833 -0.76939,0.57775 -1.2213,0.91796c-1.34151,1.07404 -2.84657,2.63974 -4.77918,4.13895c-1.80085,1.63537 -4.03047,3.12844 -6.21979,4.62972c-1.15402,0.67128 -2.30806,1.34256 -3.4378,1.99785c-1.14401,0.60185 -2.3392,1.08403 -3.44719,1.5715c0.82622,-0.65015 1.67976,-1.26946 2.56059,-1.85801c0.84397,-0.6549 1.68975,-1.3388 2.56755,-1.97423c0.43887,-0.31769 0.8891,-0.62888 1.33447,-0.95782l1.27037,-1.05498c0.85228,-0.6952 1.71751,-1.41299 2.58755,-2.11299c1.5697,-1.57347 3.32929,-3.00724 4.67708,-4.76898c0.69315,-0.86219 1.45871,-1.6676 2.04393,-2.57709c0.58525,-0.9095 1.14787,-1.83205 1.67981,-2.72724c-0.74734,0.69568 -1.4291,1.1737 -2.11609,1.7389c-0.67749,0.60076 -1.48246,1.18804 -2.44754,2.20887l-1.79876,1.89209v0l-2.00293,1.69903c-1.26129,1.19552 -2.72325,2.13986 -4.13537,3.12804c-0.32576,0.27781 -0.65146,0.55567 -0.97068,0.82223c-0.33522,0.24225 -0.68178,0.47802 -1.01705,0.72029c-0.67522,0.4668 -1.33274,0.92878 -1.99977,1.35523c-0.63969,0.45724 -1.38039,0.751 -2.1306,1.00917c-0.73892,0.2647 -1.4969,0.45827 -2.29656,0.56771c-0.27489,0.11183 -0.53381,0.24786 -0.82475,0.33536c-0.50181,0.29645 -0.92036,0.76113 -1.48322,1.00722c-2.55164,0.93144 -3.2934,0.36794 -5.99862,1.72163c-0.06239,-0.12621 0.0157,-0.26146 0.15194,-0.39322c-0.79974,0.50014 -2.25878,0.4242 -3.16868,1.01098c-0.09575,-0.25064 -0.198,-0.49002 -0.43299,-0.65571c-6.35768,0.80794 -12.82603,0.3497 -18.94267,-1.49852c-0.8979,-0.29297 -1.78452,-0.57944 -2.67762,-0.85461c-0.91267,-0.24141 -1.71773,-0.72123 -2.57833,-1.05278c-0.74135,-0.27773 -1.50224,-0.52165 -2.24664,-0.84624c-0.71189,-0.38092 -1.43496,-0.76836 -2.16939,-1.1623c-0.74088,-0.38268 -1.68444,-0.20607 -2.08595,-0.31764c-1.64632,-1.52161 -3.32564,-2.88195 -5.082,-4.70751c-0.38199,-0.1454 -1.07733,-0.60695 -1.82647,-0.94933c-0.19803,-0.49002 -0.42508,-0.98177 -0.67641,-1.45754c-0.56739,-0.55301 -1.11702,-1.1108 -1.67314,-1.65735l-1.48843,-1.82117c-0.47026,-0.61713 -1.02636,-1.16365 -1.44156,-1.82415l-1.28933,-1.93168v0l-0.04382,0.04987c-0.99561,-1.19102 -1.66976,-2.78255 -2.51695,-4.30866c-0.42603,-0.77193 -0.67725,-1.63837 -1.03685,-2.44716c-0.2998,-0.83433 -0.7258,-1.60627 -0.93191,-2.44664c-0.41017,-1.42407 -0.95477,-2.74545 -1.31728,-3.99174l0.11244,0.84644v0l0.19488,0.83386v0l0.39447,1.68558c0.14118,0.56239 0.22901,1.1391 0.39445,1.6855l0.55448,1.64264c-0.29643,-0.50173 -0.74508,-0.89603 -0.99289,-1.42991c-0.33346,-1.24451 -0.32499,-2.06622 -0.46349,-2.86753c-0.06273,-0.41195 -0.14978,-0.80785 -0.29618,-1.28312c-0.15293,-0.46401 -0.27151,-1.01343 -0.53497,-1.6765c0.1262,-0.06241 0.255,0.02699 0.37546,0.15667c-0.19495,-0.44324 -0.30361,-1.06201 -0.44776,-1.67126c-0.31935,-0.80053 -0.64562,-1.48485 -0.93682,-2.07377c0.17234,-0.63688 0.30436,-1.28209 0.40257,-1.94675c0.08695,-0.6712 0.14658,-1.37316 0.2886,-2.08768l-0.02866,-2.63155c-0.0461,-0.88326 0.14018,-1.75259 0.19251,-2.62411c0.11038,-0.86802 0.08206,-1.75603 0.29742,-2.62361l0.51681,-2.58713c-0.12609,-0.32829 -0.40624,-0.12932 -0.59832,-0.13507c0.19711,-0.75788 0.55547,-1.4827 0.89609,-2.20282l0.99753,-2.14425c0.49345,-1.32322 1.10611,-2.59262 1.6446,-3.88978c0.63042,-1.27413 1.39615,-2.4702 2.07166,-3.71831c0.20312,-0.66423 0.50769,-1.26985 0.67702,-1.95359c0.43019,-0.17245 0.86734,-0.46109 1.29198,-0.83211c0.58995,-0.89173 1.31823,-1.65854 2.04173,-2.44312c1.80015,-2.2069 5.41021,-5.90868 9.90201,-8.95112c0.22777,-0.39452 0.41649,-0.72138 0.60076,-0.7803c1.3947,-0.69767 2.69445,-1.46514 4.04486,-2.00802c1.14054,-0.54383 2.2568,-1.07159 3.31973,-1.58505c1.11406,-0.39379 2.18779,-0.79581 3.17912,-1.18529c1.0139,-0.37648 1.98177,-0.56912 2.83213,-0.84464c0.8664,-0.25121 1.62313,-0.52066 2.28225,-0.62104c0.7597,-0.22265 0.71255,-0.50535 0.19408,-0.80469c-0.25927,-0.14969 -0.63469,-0.30635 -1.08607,-0.46174c-0.45783,-0.1441 -0.96597,-0.22706 -1.51922,-0.33608c-1.08394,-0.205 -2.29055,-0.4057 -3.20672,-0.58899c-0.89709,-0.11215 -1.50017,-0.26496 -1.37478,-0.50817c0.71014,-1.04779 1.76576,-1.7308 3.06153,-2.33527c0.64702,-0.28772 1.35219,-0.57191 2.10239,-0.8301c0.78053,-0.18057 1.61267,-0.34638 2.49161,-0.51521c3.51764,-0.70432 7.82332,-0.74326 12.96666,-0.74944c1.40572,0.0902 0.94012,-0.1185 0.10032,-0.40797c-0.42229,-0.15364 -0.93648,-0.33027 -1.35226,-0.49519c-0.40625,-0.12935 -0.7188,-0.26472 -0.73437,-0.39393c0.45319,-0.26436 1.02691,-0.39901 1.68599,-0.4994c-0.16778,-0.02173 -0.3291,-0.05475 -0.49689,-0.07648c0.20338,0.01221 0.41799,0.03093 0.63262,0.04963c0.27621,-0.0359 0.56368,-0.06529 0.86897,-0.09945c0.89531,0.1412 1.78892,0.31146 2.66951,0.50425c0.04032,0.00827 0.06937,0.00999 0.1097,0.01825c0.57579,0.12204 1.15632,0.26182 1.73037,0.41291c4.45708,1.13053 8.83546,2.89193 13.01718,5.30624c24.59456,14.19967 33.01717,45.63326 18.81751,70.22779z" fill="#000000"></path></mask><filter id="Filter1049" width="146" height="146" x="-14" y="-16" filterUnits="userSpaceOnUse"><feOffset dx="0" dy="0" result="FeOffset1050Out" in="SourceGraphic"></feOffset><feGaussianBlur stdDeviation="6 6" result="FeGaussianBlur1051Out" in="FeOffset1050Out"></feGaussianBlur></filter></defs><desc>Generated with Avocode.</desc><g><g clip-path="url(#clip-8df2b130-30fd-47a1-a934-c957d479782d)"><title>Path 1757</title><g filter="url(#Filter1049)"><path d="M99.268,86.31592c-0.87203,1.5104 -1.81646,2.96396 -2.80422,4.36245c-0.35952,0.25833 -0.76939,0.57775 -1.2213,0.91796c-1.34151,1.07404 -2.84657,2.63974 -4.77918,4.13895c-1.80085,1.63537 -4.03047,3.12844 -6.21979,4.62972c-1.15402,0.67128 -2.30806,1.34256 -3.4378,1.99785c-1.14401,0.60185 -2.3392,1.08403 -3.44719,1.5715c0.82622,-0.65015 1.67976,-1.26946 2.56059,-1.85801c0.84397,-0.6549 1.68975,-1.3388 2.56755,-1.97423c0.43887,-0.31769 0.8891,-0.62888 1.33447,-0.95782l1.27037,-1.05498c0.85228,-0.6952 1.71751,-1.41299 2.58755,-2.11299c1.5697,-1.57347 3.32929,-3.00724 4.67708,-4.76898c0.69315,-0.86219 1.45871,-1.6676 2.04393,-2.57709c0.58525,-0.9095 1.14787,-1.83205 1.67981,-2.72724c-0.74734,0.69568 -1.4291,1.1737 -2.11609,1.7389c-0.67749,0.60076 -1.48246,1.18804 -2.44754,2.20887l-1.79876,1.89209v0l-2.00293,1.69903c-1.26129,1.19552 -2.72325,2.13986 -4.13537,3.12804c-0.32576,0.27781 -0.65146,0.55567 -0.97068,0.82223c-0.33522,0.24225 -0.68178,0.47802 -1.01705,0.72029c-0.67522,0.4668 -1.33274,0.92878 -1.99977,1.35523c-0.63969,0.45724 -1.38039,0.751 -2.1306,1.00917c-0.73892,0.2647 -1.4969,0.45827 -2.29656,0.56771c-0.27489,0.11183 -0.53381,0.24786 -0.82475,0.33536c-0.50181,0.29645 -0.92036,0.76113 -1.48322,1.00722c-2.55164,0.93144 -3.2934,0.36794 -5.99862,1.72163c-0.06239,-0.12621 0.0157,-0.26146 0.15194,-0.39322c-0.79974,0.50014 -2.25878,0.4242 -3.16868,1.01098c-0.09575,-0.25064 -0.198,-0.49002 -0.43299,-0.65571c-6.35768,0.80794 -12.82603,0.3497 -18.94267,-1.49852c-0.8979,-0.29297 -1.78452,-0.57944 -2.67762,-0.85461c-0.91267,-0.24141 -1.71773,-0.72123 -2.57833,-1.05278c-0.74135,-0.27773 -1.50224,-0.52165 -2.24664,-0.84624c-0.71189,-0.38092 -1.43496,-0.76836 -2.16939,-1.1623c-0.74088,-0.38268 -1.68444,-0.20607 -2.08595,-0.31764c-1.64632,-1.52161 -3.32564,-2.88195 -5.082,-4.70751c-0.38199,-0.1454 -1.07733,-0.60695 -1.82647,-0.94933c-0.19803,-0.49002 -0.42508,-0.98177 -0.67641,-1.45754c-0.56739,-0.55301 -1.11702,-1.1108 -1.67314,-1.65735l-1.48843,-1.82117c-0.47026,-0.61713 -1.02636,-1.16365 -1.44156,-1.82415l-1.28933,-1.93168v0l-0.04382,0.04987c-0.99561,-1.19102 -1.66976,-2.78255 -2.51695,-4.30866c-0.42603,-0.77193 -0.67725,-1.63837 -1.03685,-2.44716c-0.2998,-0.83433 -0.7258,-1.60627 -0.93191,-2.44664c-0.41017,-1.42407 -0.95477,-2.74545 -1.31728,-3.99174l0.11244,0.84644v0l0.19488,0.83386v0l0.39447,1.68558c0.14118,0.56239 0.22901,1.1391 0.39445,1.6855l0.55448,1.64264c-0.29643,-0.50173 -0.74508,-0.89603 -0.99289,-1.42991c-0.33346,-1.24451 -0.32499,-2.06622 -0.46349,-2.86753c-0.06273,-0.41195 -0.14978,-0.80785 -0.29618,-1.28312c-0.15293,-0.46401 -0.27151,-1.01343 -0.53497,-1.6765c0.1262,-0.06241 0.255,0.02699 0.37546,0.15667c-0.19495,-0.44324 -0.30361,-1.06201 -0.44776,-1.67126c-0.31935,-0.80053 -0.64562,-1.48485 -0.93682,-2.07377c0.17234,-0.63688 0.30436,-1.28209 0.40257,-1.94675c0.08695,-0.6712 0.14658,-1.37316 0.2886,-2.08768l-0.02866,-2.63155c-0.0461,-0.88326 0.14018,-1.75259 0.19251,-2.62411c0.11038,-0.86802 0.08206,-1.75603 0.29742,-2.62361l0.51681,-2.58713c-0.12609,-0.32829 -0.40624,-0.12932 -0.59832,-0.13507c0.19711,-0.75788 0.55547,-1.4827 0.89609,-2.20282l0.99753,-2.14425c0.49345,-1.32322 1.10611,-2.59262 1.6446,-3.88978c0.63042,-1.27413 1.39615,-2.4702 2.07166,-3.71831c0.20312,-0.66423 0.50769,-1.26985 0.67702,-1.95359c0.43019,-0.17245 0.86734,-0.46109 1.29198,-0.83211c0.58995,-0.89173 1.31823,-1.65854 2.04173,-2.44312c1.80015,-2.2069 5.41021,-5.90868 9.90201,-8.95112c0.22777,-0.39452 0.41649,-0.72138 0.60076,-0.7803c1.3947,-0.69767 2.69445,-1.46514 4.04486,-2.00802c1.14054,-0.54383 2.2568,-1.07159 3.31973,-1.58505c1.11406,-0.39379 2.18779,-0.79581 3.17912,-1.18529c1.0139,-0.37648 1.98177,-0.56912 2.83213,-0.84464c0.8664,-0.25121 1.62313,-0.52066 2.28225,-0.62104c0.7597,-0.22265 0.71255,-0.50535 0.19408,-0.80469c-0.25927,-0.14969 -0.63469,-0.30635 -1.08607,-0.46174c-0.45783,-0.1441 -0.96597,-0.22706 -1.51922,-0.33608c-1.08394,-0.205 -2.29055,-0.4057 -3.20672,-0.58899c-0.89709,-0.11215 -1.50017,-0.26496 -1.37478,-0.50817c0.71014,-1.04779 1.76576,-1.7308 3.06153,-2.33527c0.64702,-0.28772 1.35219,-0.57191 2.10239,-0.8301c0.78053,-0.18057 1.61267,-0.34638 2.49161,-0.51521c3.51764,-0.70432 7.82332,-0.74326 12.96666,-0.74944c1.40572,0.0902 0.94012,-0.1185 0.10032,-0.40797c-0.42229,-0.15364 -0.93648,-0.33027 -1.35226,-0.49519c-0.40625,-0.12935 -0.7188,-0.26472 -0.73437,-0.39393c0.45319,-0.26436 1.02691,-0.39901 1.68599,-0.4994c-0.16778,-0.02173 -0.3291,-0.05475 -0.49689,-0.07648c0.20338,0.01221 0.41799,0.03093 0.63262,0.04963c0.27621,-0.0359 0.56368,-0.06529 0.86897,-0.09945c0.89531,0.1412 1.78892,0.31146 2.66951,0.50425c0.04032,0.00827 0.06937,0.00999 0.1097,0.01825c0.57579,0.12204 1.15632,0.26182 1.73037,0.41291c4.45708,1.13053 8.83546,2.89193 13.01718,5.30624c24.59456,14.19967 33.01717,45.63326 18.81751,70.22779z" fill="none" stroke-opacity="0.2" stroke-width="0" mask="url(&quot;#Mask1045&quot;)"></path><path d="M99.268,86.31592c-0.87203,1.5104 -1.81646,2.96396 -2.80422,4.36245c-0.35952,0.25833 -0.76939,0.57775 -1.2213,0.91796c-1.34151,1.07404 -2.84657,2.63974 -4.77918,4.13895c-1.80085,1.63537 -4.03047,3.12844 -6.21979,4.62972c-1.15402,0.67128 -2.30806,1.34256 -3.4378,1.99785c-1.14401,0.60185 -2.3392,1.08403 -3.44719,1.5715c0.82622,-0.65015 1.67976,-1.26946 2.56059,-1.85801c0.84397,-0.6549 1.68975,-1.3388 2.56755,-1.97423c0.43887,-0.31769 0.8891,-0.62888 1.33447,-0.95782l1.27037,-1.05498c0.85228,-0.6952 1.71751,-1.41299 2.58755,-2.11299c1.5697,-1.57347 3.32929,-3.00724 4.67708,-4.76898c0.69315,-0.86219 1.45871,-1.6676 2.04393,-2.57709c0.58525,-0.9095 1.14787,-1.83205 1.67981,-2.72724c-0.74734,0.69568 -1.4291,1.1737 -2.11609,1.7389c-0.67749,0.60076 -1.48246,1.18804 -2.44754,2.20887l-1.79876,1.89209v0l-2.00293,1.69903c-1.26129,1.19552 -2.72325,2.13986 -4.13537,3.12804c-0.32576,0.27781 -0.65146,0.55567 -0.97068,0.82223c-0.33522,0.24225 -0.68178,0.47802 -1.01705,0.72029c-0.67522,0.4668 -1.33274,0.92878 -1.99977,1.35523c-0.63969,0.45724 -1.38039,0.751 -2.1306,1.00917c-0.73892,0.2647 -1.4969,0.45827 -2.29656,0.56771c-0.27489,0.11183 -0.53381,0.24786 -0.82475,0.33536c-0.50181,0.29645 -0.92036,0.76113 -1.48322,1.00722c-2.55164,0.93144 -3.2934,0.36794 -5.99862,1.72163c-0.06239,-0.12621 0.0157,-0.26146 0.15194,-0.39322c-0.79974,0.50014 -2.25878,0.4242 -3.16868,1.01098c-0.09575,-0.25064 -0.198,-0.49002 -0.43299,-0.65571c-6.35768,0.80794 -12.82603,0.3497 -18.94267,-1.49852c-0.8979,-0.29297 -1.78452,-0.57944 -2.67762,-0.85461c-0.91267,-0.24141 -1.71773,-0.72123 -2.57833,-1.05278c-0.74135,-0.27773 -1.50224,-0.52165 -2.24664,-0.84624c-0.71189,-0.38092 -1.43496,-0.76836 -2.16939,-1.1623c-0.74088,-0.38268 -1.68444,-0.20607 -2.08595,-0.31764c-1.64632,-1.52161 -3.32564,-2.88195 -5.082,-4.70751c-0.38199,-0.1454 -1.07733,-0.60695 -1.82647,-0.94933c-0.19803,-0.49002 -0.42508,-0.98177 -0.67641,-1.45754c-0.56739,-0.55301 -1.11702,-1.1108 -1.67314,-1.65735l-1.48843,-1.82117c-0.47026,-0.61713 -1.02636,-1.16365 -1.44156,-1.82415l-1.28933,-1.93168v0l-0.04382,0.04987c-0.99561,-1.19102 -1.66976,-2.78255 -2.51695,-4.30866c-0.42603,-0.77193 -0.67725,-1.63837 -1.03685,-2.44716c-0.2998,-0.83433 -0.7258,-1.60627 -0.93191,-2.44664c-0.41017,-1.42407 -0.95477,-2.74545 -1.31728,-3.99174l0.11244,0.84644v0l0.19488,0.83386v0l0.39447,1.68558c0.14118,0.56239 0.22901,1.1391 0.39445,1.6855l0.55448,1.64264c-0.29643,-0.50173 -0.74508,-0.89603 -0.99289,-1.42991c-0.33346,-1.24451 -0.32499,-2.06622 -0.46349,-2.86753c-0.06273,-0.41195 -0.14978,-0.80785 -0.29618,-1.28312c-0.15293,-0.46401 -0.27151,-1.01343 -0.53497,-1.6765c0.1262,-0.06241 0.255,0.02699 0.37546,0.15667c-0.19495,-0.44324 -0.30361,-1.06201 -0.44776,-1.67126c-0.31935,-0.80053 -0.64562,-1.48485 -0.93682,-2.07377c0.17234,-0.63688 0.30436,-1.28209 0.40257,-1.94675c0.08695,-0.6712 0.14658,-1.37316 0.2886,-2.08768l-0.02866,-2.63155c-0.0461,-0.88326 0.14018,-1.75259 0.19251,-2.62411c0.11038,-0.86802 0.08206,-1.75603 0.29742,-2.62361l0.51681,-2.58713c-0.12609,-0.32829 -0.40624,-0.12932 -0.59832,-0.13507c0.19711,-0.75788 0.55547,-1.4827 0.89609,-2.20282l0.99753,-2.14425c0.49345,-1.32322 1.10611,-2.59262 1.6446,-3.88978c0.63042,-1.27413 1.39615,-2.4702 2.07166,-3.71831c0.20312,-0.66423 0.50769,-1.26985 0.67702,-1.95359c0.43019,-0.17245 0.86734,-0.46109 1.29198,-0.83211c0.58995,-0.89173 1.31823,-1.65854 2.04173,-2.44312c1.80015,-2.2069 5.41021,-5.90868 9.90201,-8.95112c0.22777,-0.39452 0.41649,-0.72138 0.60076,-0.7803c1.3947,-0.69767 2.69445,-1.46514 4.04486,-2.00802c1.14054,-0.54383 2.2568,-1.07159 3.31973,-1.58505c1.11406,-0.39379 2.18779,-0.79581 3.17912,-1.18529c1.0139,-0.37648 1.98177,-0.56912 2.83213,-0.84464c0.8664,-0.25121 1.62313,-0.52066 2.28225,-0.62104c0.7597,-0.22265 0.71255,-0.50535 0.19408,-0.80469c-0.25927,-0.14969 -0.63469,-0.30635 -1.08607,-0.46174c-0.45783,-0.1441 -0.96597,-0.22706 -1.51922,-0.33608c-1.08394,-0.205 -2.29055,-0.4057 -3.20672,-0.58899c-0.89709,-0.11215 -1.50017,-0.26496 -1.37478,-0.50817c0.71014,-1.04779 1.76576,-1.7308 3.06153,-2.33527c0.64702,-0.28772 1.35219,-0.57191 2.10239,-0.8301c0.78053,-0.18057 1.61267,-0.34638 2.49161,-0.51521c3.51764,-0.70432 7.82332,-0.74326 12.96666,-0.74944c1.40572,0.0902 0.94012,-0.1185 0.10032,-0.40797c-0.42229,-0.15364 -0.93648,-0.33027 -1.35226,-0.49519c-0.40625,-0.12935 -0.7188,-0.26472 -0.73437,-0.39393c0.45319,-0.26436 1.02691,-0.39901 1.68599,-0.4994c-0.16778,-0.02173 -0.3291,-0.05475 -0.49689,-0.07648c0.20338,0.01221 0.41799,0.03093 0.63262,0.04963c0.27621,-0.0359 0.56368,-0.06529 0.86897,-0.09945c0.89531,0.1412 1.78892,0.31146 2.66951,0.50425c0.04032,0.00827 0.06937,0.00999 0.1097,0.01825c0.57579,0.12204 1.15632,0.26182 1.73037,0.41291c4.45708,1.13053 8.83546,2.89193 13.01718,5.30624c24.59456,14.19967 33.01717,45.63326 18.81751,70.22779z" fill="#000000" fill-opacity="0.2"></path></g><path d="M99.268,86.31592c-0.87203,1.5104 -1.81646,2.96396 -2.80422,4.36245c-0.35952,0.25833 -0.76939,0.57775 -1.2213,0.91796c-1.34151,1.07404 -2.84657,2.63974 -4.77918,4.13895c-1.80085,1.63537 -4.03047,3.12844 -6.21979,4.62972c-1.15402,0.67128 -2.30806,1.34256 -3.4378,1.99785c-1.14401,0.60185 -2.3392,1.08403 -3.44719,1.5715c0.82622,-0.65015 1.67976,-1.26946 2.56059,-1.85801c0.84397,-0.6549 1.68975,-1.3388 2.56755,-1.97423c0.43887,-0.31769 0.8891,-0.62888 1.33447,-0.95782l1.27037,-1.05498c0.85228,-0.6952 1.71751,-1.41299 2.58755,-2.11299c1.5697,-1.57347 3.32929,-3.00724 4.67708,-4.76898c0.69315,-0.86219 1.45871,-1.6676 2.04393,-2.57709c0.58525,-0.9095 1.14787,-1.83205 1.67981,-2.72724c-0.74734,0.69568 -1.4291,1.1737 -2.11609,1.7389c-0.67749,0.60076 -1.48246,1.18804 -2.44754,2.20887l-1.79876,1.89209v0l-2.00293,1.69903c-1.26129,1.19552 -2.72325,2.13986 -4.13537,3.12804c-0.32576,0.27781 -0.65146,0.55567 -0.97068,0.82223c-0.33522,0.24225 -0.68178,0.47802 -1.01705,0.72029c-0.67522,0.4668 -1.33274,0.92878 -1.99977,1.35523c-0.63969,0.45724 -1.38039,0.751 -2.1306,1.00917c-0.73892,0.2647 -1.4969,0.45827 -2.29656,0.56771c-0.27489,0.11183 -0.53381,0.24786 -0.82475,0.33536c-0.50181,0.29645 -0.92036,0.76113 -1.48322,1.00722c-2.55164,0.93144 -3.2934,0.36794 -5.99862,1.72163c-0.06239,-0.12621 0.0157,-0.26146 0.15194,-0.39322c-0.79974,0.50014 -2.25878,0.4242 -3.16868,1.01098c-0.09575,-0.25064 -0.198,-0.49002 -0.43299,-0.65571c-6.35768,0.80794 -12.82603,0.3497 -18.94267,-1.49852c-0.8979,-0.29297 -1.78452,-0.57944 -2.67762,-0.85461c-0.91267,-0.24141 -1.71773,-0.72123 -2.57833,-1.05278c-0.74135,-0.27773 -1.50224,-0.52165 -2.24664,-0.84624c-0.71189,-0.38092 -1.43496,-0.76836 -2.16939,-1.1623c-0.74088,-0.38268 -1.68444,-0.20607 -2.08595,-0.31764c-1.64632,-1.52161 -3.32564,-2.88195 -5.082,-4.70751c-0.38199,-0.1454 -1.07733,-0.60695 -1.82647,-0.94933c-0.19803,-0.49002 -0.42508,-0.98177 -0.67641,-1.45754c-0.56739,-0.55301 -1.11702,-1.1108 -1.67314,-1.65735l-1.48843,-1.82117c-0.47026,-0.61713 -1.02636,-1.16365 -1.44156,-1.82415l-1.28933,-1.93168v0l-0.04382,0.04987c-0.99561,-1.19102 -1.66976,-2.78255 -2.51695,-4.30866c-0.42603,-0.77193 -0.67725,-1.63837 -1.03685,-2.44716c-0.2998,-0.83433 -0.7258,-1.60627 -0.93191,-2.44664c-0.41017,-1.42407 -0.95477,-2.74545 -1.31728,-3.99174l0.11244,0.84644v0l0.19488,0.83386v0l0.39447,1.68558c0.14118,0.56239 0.22901,1.1391 0.39445,1.6855l0.55448,1.64264c-0.29643,-0.50173 -0.74508,-0.89603 -0.99289,-1.42991c-0.33346,-1.24451 -0.32499,-2.06622 -0.46349,-2.86753c-0.06273,-0.41195 -0.14978,-0.80785 -0.29618,-1.28312c-0.15293,-0.46401 -0.27151,-1.01343 -0.53497,-1.6765c0.1262,-0.06241 0.255,0.02699 0.37546,0.15667c-0.19495,-0.44324 -0.30361,-1.06201 -0.44776,-1.67126c-0.31935,-0.80053 -0.64562,-1.48485 -0.93682,-2.07377c0.17234,-0.63688 0.30436,-1.28209 0.40257,-1.94675c0.08695,-0.6712 0.14658,-1.37316 0.2886,-2.08768l-0.02866,-2.63155c-0.0461,-0.88326 0.14018,-1.75259 0.19251,-2.62411c0.11038,-0.86802 0.08206,-1.75603 0.29742,-2.62361l0.51681,-2.58713c-0.12609,-0.32829 -0.40624,-0.12932 -0.59832,-0.13507c0.19711,-0.75788 0.55547,-1.4827 0.89609,-2.20282l0.99753,-2.14425c0.49345,-1.32322 1.10611,-2.59262 1.6446,-3.88978c0.63042,-1.27413 1.39615,-2.4702 2.07166,-3.71831c0.20312,-0.66423 0.50769,-1.26985 0.67702,-1.95359c0.43019,-0.17245 0.86734,-0.46109 1.29198,-0.83211c0.58995,-0.89173 1.31823,-1.65854 2.04173,-2.44312c1.80015,-2.2069 5.41021,-5.90868 9.90201,-8.95112c0.22777,-0.39452 0.41649,-0.72138 0.60076,-0.7803c1.3947,-0.69767 2.69445,-1.46514 4.04486,-2.00802c1.14054,-0.54383 2.2568,-1.07159 3.31973,-1.58505c1.11406,-0.39379 2.18779,-0.79581 3.17912,-1.18529c1.0139,-0.37648 1.98177,-0.56912 2.83213,-0.84464c0.8664,-0.25121 1.62313,-0.52066 2.28225,-0.62104c0.7597,-0.22265 0.71255,-0.50535 0.19408,-0.80469c-0.25927,-0.14969 -0.63469,-0.30635 -1.08607,-0.46174c-0.45783,-0.1441 -0.96597,-0.22706 -1.51922,-0.33608c-1.08394,-0.205 -2.29055,-0.4057 -3.20672,-0.58899c-0.89709,-0.11215 -1.50017,-0.26496 -1.37478,-0.50817c0.71014,-1.04779 1.76576,-1.7308 3.06153,-2.33527c0.64702,-0.28772 1.35219,-0.57191 2.10239,-0.8301c0.78053,-0.18057 1.61267,-0.34638 2.49161,-0.51521c3.51764,-0.70432 7.82332,-0.74326 12.96666,-0.74944c1.40572,0.0902 0.94012,-0.1185 0.10032,-0.40797c-0.42229,-0.15364 -0.93648,-0.33027 -1.35226,-0.49519c-0.40625,-0.12935 -0.7188,-0.26472 -0.73437,-0.39393c0.45319,-0.26436 1.02691,-0.39901 1.68599,-0.4994c-0.16778,-0.02173 -0.3291,-0.05475 -0.49689,-0.07648c0.20338,0.01221 0.41799,0.03093 0.63262,0.04963c0.27621,-0.0359 0.56368,-0.06529 0.86897,-0.09945c0.89531,0.1412 1.78892,0.31146 2.66951,0.50425c0.04032,0.00827 0.06937,0.00999 0.1097,0.01825c0.57579,0.12204 1.15632,0.26182 1.73037,0.41291c4.45708,1.13053 8.83546,2.89193 13.01718,5.30624c24.59456,14.19967 33.01717,45.63326 18.81751,70.22779z" fill="#3AAD49" fill-opacity="1"></path></g></g></svg>