<?xml version="1.0" encoding="UTF-8"?>
<svg id="SVGDoc" width="24" height="22" xmlns="http://www.w3.org/2000/svg" version="1.1" xmlns:xlink="http://www.w3.org/1999/xlink" xmlns:avocode="https://avocode.com/" viewBox="0 0 24 22"><defs></defs><desc>Generated with Avocode.</desc><g><g><title>Group 1548</title><g><title>Path 2083</title><path d="M11.93652,11.10018c-0.41371,0 -0.74915,0.33507 -0.74915,0.74915v5.53375c0,0.41408 0.33544,0.74915 0.74915,0.74915c0.41371,0 0.74915,-0.33507 0.74915,-0.74915v-5.53375c0,-0.41405 -0.33547,-0.74915 -0.74915,-0.74915z" fill="#f2f2f2" fill-opacity="1"></path></g><g><title>Path 2084</title><path d="M7.78926,11.10272c-0.41225,0.03475 -0.71842,0.39689 -0.68367,0.80951l0.46602,5.53375c0.03292,0.39067 0.36031,0.68623 0.74586,0.68623c0.02085,0 0.04207,-0.00073 0.06365,-0.00293c0.41225,-0.03439 0.71842,-0.39652 0.68367,-0.80914l-0.46602,-5.53375c-0.03474,-0.41188 -0.39103,-0.72316 -0.80951,-0.68368z" fill="#f2f2f2" fill-opacity="1"></path></g><g><title>Path 2085</title><path d="M15.96727,11.10272c-0.40457,-0.03073 -0.77402,0.27179 -0.80914,0.68367l-0.46602,5.53375c-0.03512,0.41262 0.27142,0.77476 0.68331,0.80914c0.02122,0.0022 0.04243,0.00293 0.06365,0.00293c0.38555,0 0.71257,-0.29556 0.74549,-0.68623l0.46602,-5.53375c0.03513,-0.41261 -0.27135,-0.77475 -0.6833,-0.80951z" fill="#f2f2f2" fill-opacity="1"></path></g><g><title>Path 2086</title><path d="M19.2419,18.46955c-0.07912,0.78983 -0.71207,1.38624 -1.47104,1.38624h-11.78552c-0.66629,0 -1.31719,-0.6411 -1.47287,-1.40529l-1.09325,-8.69289h17.02744zM2.18577,7.18h19.50296l-0.00146,1.07704h-19.50296zM19.95547,5.67947l-5.05779,-4.69722c-0.30402,-0.28208 -0.77874,-0.26413 -1.06006,0.0392c-0.28205,0.3037 -0.26447,0.77848 0.03883,1.06055l3.87361,3.59747h-11.62706l3.87361,-3.59747c0.30329,-0.28208 0.32087,-0.75686 0.03919,-1.06055c-0.28314,-0.30406 -0.75676,-0.32165 -1.06042,-0.0392l-5.05777,4.69722h-1.89997c-0.76043,0 -1.33367,0.59969 -1.33367,1.39467v1.28878c0,0.75462 0.5189,1.32675 1.22173,1.38358l1.12695,8.9458c0.31062,1.54376 1.55236,2.66403 2.9527,2.66403h11.78547c1.53331,0 2.80728,-1.17669 2.96039,-2.70946l1.23102,-8.89981c0.70562,-0.05428 1.22684,-0.62755 1.22684,-1.38412v-1.28878c0,-0.79501 -0.5729,-1.39469 -1.33328,-1.39469z" fill="#f2f2f2" fill-opacity="1"></path></g></g></g></svg>