<?xml version="1.0" encoding="UTF-8"?>
<svg id="SVGDoc" width="24" height="22" xmlns="http://www.w3.org/2000/svg" version="1.1" xmlns:xlink="http://www.w3.org/1999/xlink" xmlns:avocode="https://avocode.com/" viewBox="0 0 24 22"><defs></defs><desc>Generated with Avocode.</desc><g><g><title>Group 2581</title><g><title>Path 3031</title><path d="M5.01501,10.43503v-0.0008M11.5166,17.03509h-0.00157M17.69209,18.60672h0.00786M7.09812,7.72656l-1.96211,1.86761c-0.15794,0.15078 -0.24752,0.36139 -0.24752,0.58238c0,0.20982 0.06287,0.40129 0.19095,0.57281c0.011,0.02793 0.02436,0.05425 0.03929,0.08058l0.04793,0.08536c0.50055,0.89112 1.18654,2.11093 2.49173,3.43605c1.30676,1.32672 2.5098,2.02318 3.38831,2.53217l0.08015,0.04627c0.02436,0.01516 0.05029,0.02712 0.07701,0.03909c0.33553,0.26007 0.82743,0.26088 1.1221,-0.03829l1.86074,-1.88358l3.45825,3.51105c-0.11709,0.12126 -0.24359,0.26326 -0.37482,0.40846c-0.24438,0.27364 -0.54848,0.6119 -0.72764,0.73396c-0.04322,0.02873 -0.0833,0.06223 -0.12023,0.09973c-0.2436,0.2473 -1.19518,0.66853 -1.66744,0.67093c-0.66242,0.02712 -4.21024,-0.03032 -8.65229,-4.54019c-3.51875,-3.57168 -4.8153,-6.10623 -4.47584,-8.7461c0.00315,-0.02393 0.0055,-0.07499 0.00629,-0.09892c0.011,-0.27364 0.34182,-1.30996 0.65849,-1.63306l1.22347,-1.24135zM14.55838,22.06985c0.0998,0 0.18623,-0.00239 0.2601,-0.00558c0.85179,0 2.1122,-0.5768 2.65596,-1.0794c0.31982,-0.23295 0.64356,-0.59355 0.95866,-0.94458c0.13044,-0.14519 0.25695,-0.2864 0.37089,-0.40207c0.26638,-0.27125 0.42039,-0.66455 0.42039,-1.0802c0,-0.41484 -0.15401,-0.80895 -0.42039,-1.0794l-3.55647,-3.61076c-0.55712,-0.56563 -1.57,-0.56563 -2.12712,0l-1.49221,1.51579c-0.81015,-0.47229 -1.78924,-1.07541 -2.85869,-2.1604c-1.0616,-1.0778 -1.65408,-2.06626 -2.11691,-2.88478l1.60929,-1.53254c0.55633,-0.56562 0.55633,-1.59476 -0.01022,-2.16917l-3.67355,-3.60119c-0.53512,-0.54329 -1.592,-0.54329 -2.12712,0l-1.27062,1.28922c-0.65849,0.66934 -1.08674,2.09179 -1.11739,2.69172c-0.39368,3.17917 1.03724,6.09188 4.92845,10.0425c4.46169,4.53062 8.20125,5.01088 9.56695,5.01088z" fill="#22262a" fill-opacity="1"></path></g><g><title>24</title><g transform="matrix(1,0,0,1,10,2)"><text dominant-baseline="text-before-edge" style="fill: #22262a; fill-opacity: 1; font-size: 8px; font-family: 'Montserrat', 'Montserrat-SemiBold'; line-height: 5px; font-kerning: normal" ><tspan>24</tspan></text></g></g><g><title>Path 3032</title><path d="M20.01534,15.16326c-0.24909,0 -0.49269,-0.11709 -0.64591,-0.33553c-0.24752,-0.35596 -0.16109,-0.84549 0.19487,-1.09458c1.79395,-1.25016 2.86419,-3.30024 2.86419,-5.48232c0,-3.68291 -2.99699,-6.67905 -6.67918,-6.67905c-2.01947,0 -3.91007,0.89971 -5.1854,2.46889c-0.27345,0.3371 -0.76771,0.38896 -1.1056,0.11394c-0.3371,-0.27345 -0.38818,-0.76848 -0.11394,-1.10558c1.5755,-1.93771 3.91007,-3.04879 6.40494,-3.04879c4.5497,0 8.25075,3.70098 8.25075,8.25059c0,2.69598 -1.32248,5.22773 -3.53604,6.77177c-0.13751,0.09508 -0.29388,0.14066 -0.44868,0.14066z" fill="#22262a" fill-opacity="1"></path></g></g></g></svg>