<?xml version="1.0" encoding="UTF-8"?>
<svg id="SVGDoc" width="21" height="19" xmlns="http://www.w3.org/2000/svg" version="1.1" xmlns:xlink="http://www.w3.org/1999/xlink" xmlns:avocode="https://avocode.com/" viewBox="0 0 21 19"><defs></defs><desc>Generated with Avocode.</desc><g><g><title>Path 2090</title><path d="M19.08333,14.66602h-6.16667c0.58333,-1.16667 0.58333,-2.5 0,-3.66667h3.66667c1.58333,0 2.5,0.91667 3,2.91667c0.16667,0.33333 -0.08333,0.75 -0.5,0.75zM15.41667,17.08268c-0.83333,0 -1.5,-0.5 -1.75,-1.25h3.5c-0.25,0.75 -0.91667,1.25 -1.75,1.25zM12.33333,9.74935v-0.58333c0,-0.33333 0.25,-0.58333 0.58333,-0.58333c0.41667,0 3.83333,0 4.25,0c0.33333,0 0.58333,0.25 0.58333,0.58333c0,0.33333 -0.25,0.58333 -0.58333,0.58333c-0.5,0 -4.33333,0 -4.83333,0zM13.58333,3.66602h6.08333v3.08333c0,0.33333 -0.25,0.58333 -0.58333,0.58333c-0.16667,0 -4.66667,0 -4.91667,0c-0.33333,0 -0.58333,-0.25 -0.58333,-0.58333zM13.58333,1.83268c0,-0.33333 0.25,-0.58333 0.58333,-0.58333h4.91667c0.33333,0 0.58333,0.25 0.58333,0.58333v0.58333h-6.08333zM7.41667,11.08268c-0.66667,-0.66667 -1.5,-1.08333 -2.5,-1.25l1.08333,-3.66667c0.83333,0.16667 1.41667,0.91667 1.41667,1.75zM7.41667,14.66602h-1.25c-0.25,-1.41667 -1.5,-2.41667 -3,-2.41667c-0.5,0 -1,0.16667 -1.5,0.33333c0.5,-0.91667 1.5,-1.58333 2.66667,-1.58333c1.66667,0 3.08333,1.33333 3.08333,3.08333zM4.08333,16.83268c-1.41667,0.75 -2.75,-0.25 -2.75,-1.58333c0,-1 0.83333,-1.83333 1.83333,-1.83333c1,0 1.83333,0.83333 1.83333,1.83333c0,0.75 -0.41667,1.33333 -0.91667,1.58333zM5,3.66602h0.58333c0.33333,0 0.58333,0.25 0.58333,0.58333v0.58333c-0.41667,0 -0.75,0 -1.25,0l0.08333,-1.16667zM20.83333,13.58268c-0.41667,-1.83333 -1.25,-2.75 -2.16667,-3.33333c0.25,-0.33333 0.41667,-0.66667 0.41667,-1.16667c0,-0.25 0,-0.41667 -0.08333,-0.58333h0.08333c1,0 1.83333,-0.83333 1.83333,-1.83333v-4.83333c0,-1 -0.83333,-1.83333 -1.83333,-1.83333h-4.91667c-1,0 -1.83333,0.83333 -1.83333,1.83333v4.91667c0,0.25 0.08333,0.5 0.16667,0.66667c-0.75,0.25 -1.33333,0.91667 -1.33333,1.75v1.25c0,0.16667 0.08333,0.33333 0.16667,0.41667c1.08333,1.08333 1.08333,2.75 0.16667,3.83333h-2.83333v-6.66666c0,-0.66667 -0.25,-1.33333 -0.58333,-1.83333h1.25c0.33333,0 0.58333,-0.25 0.58333,-0.58333c0,-0.33333 -0.25,-0.58333 -0.58333,-0.58333h-1.83333v-0.75c0,-1 -0.83333,-1.83333 -1.83333,-1.83333h-1.33333c-0.33333,0 -0.58333,0.25 -0.58333,0.58333v2.41667c0,0.33333 0.25,0.58333 0.58333,0.58333h0.41667l-1.16667,3.75c-2,0.33333 -3.5,2.08333 -3.5,4.25v1.25c0,1.75 1.41667,3.08333 3.08333,3.08333c1.5,0 2.75,-0.91667 3,-2.41667c0.16667,0 5.83333,0 6.33333,0c0.25,1.41667 1.5,2.41667 3,2.41667c1.5,0 2.66667,-1.08333 3,-2.41667h0.66667c1.08333,0 2,-1.16667 1.66667,-2.33333z" fill="#ed3544" fill-opacity="1"></path></g></g></svg>