<?xml version="1.0" encoding="UTF-8"?>
<svg id="SVGDoc" width="25" height="25" xmlns="http://www.w3.org/2000/svg" version="1.1" xmlns:xlink="http://www.w3.org/1999/xlink" xmlns:avocode="https://avocode.com/" viewBox="0 0 25 25"><defs></defs><desc>Generated with Avocode.</desc><g><g><title>Group 1567</title><g><title>Path 2106</title><path d="M21.26232,23.79168l-19.93338,-19.93338c-0.78635,-0.78635 -0.78632,-2.0613 0,-2.84762v0c0.78632,-0.78632 2.06127,-0.78635 2.84762,0l19.93338,19.93338c0.78632,0.78632 0.78632,2.0613 0,2.84762v0c-0.78632,0.78632 -2.0613,0.78632 -2.84762,0z" fill="#ffffff" fill-opacity="1"></path></g><g><title>Path 3248</title><path d="M4.17655,23.79156l19.93328,-19.93328c0.78635,-0.78635 0.78632,-2.06129 0,-2.84761v0c-0.78632,-0.78632 -2.06126,-0.78635 -2.84761,0l-19.93328,19.93328c-0.78632,0.78632 -0.78632,2.0613 0,2.84762v0c0.78632,0.78632 2.06129,0.78631 2.84761,-0.00001z" fill="#ffffff" fill-opacity="1"></path></g></g></g></svg>