<?xml version="1.0" encoding="UTF-8"?>
<svg id="SVGDoc" width="15" height="12" xmlns="http://www.w3.org/2000/svg" version="1.1" xmlns:xlink="http://www.w3.org/1999/xlink" xmlns:avocode="https://avocode.com/" viewBox="0 0 15 12"><defs></defs><desc>Generated with Avocode.</desc><g><g clip-path="url(#clip-fea5e510-ea73-47bf-bd53-4b45572a8adf)"><title>Group 2358</title><g><title>left-arrow</title><g><title>Group 2334</title><g><title>Path 3081</title><path d="M7.17288,2.8418v0l-5.23759,5.02254c-0.14387,0.13829 -0.33623,0.21437 -0.54133,0.21437c-0.20522,0 -0.39746,-0.07608 -0.54156,-0.21437l-0.4587,-0.44011c-0.14432,-0.13808 -0.22377,-0.32266 -0.22377,-0.51934c0,-0.1967 0.07945,-0.38105 0.22377,-0.51924l6.23581,-5.98013c0.14455,-0.13873 0.33771,-0.2147 0.54304,-0.21416c0.20624,-0.00054 0.39917,0.07532 0.54384,0.21416l6.22977,5.97457c0.14433,0.13818 0.22377,0.32254 0.22377,0.51934c0,0.19669 -0.07945,0.38105 -0.22377,0.51934l-0.4587,0.43999c-0.29855,0.28631 -0.78457,0.28631 -1.08301,0z" fill="#ffffff" fill-opacity="1"></path></g></g></g><g><title>left-arrow</title><g><title>Group 2334</title><g><title>Path 3081</title><path d="M7.17201,7.97906v0l-3.69197,3.70801c-0.10141,0.1021 -0.23701,0.15827 -0.38159,0.15827c-0.14466,0 -0.28017,-0.05617 -0.38174,-0.15827l-0.32334,-0.32492c-0.10173,-0.10194 -0.15774,-0.23821 -0.15774,-0.38342c0,-0.14521 0.056,-0.28132 0.15774,-0.38334l4.39561,-4.41498c0.10189,-0.10242 0.23805,-0.1585 0.38279,-0.15811c0.14538,-0.0004 0.28138,0.05561 0.38335,0.15811l4.39136,4.41087c0.10173,0.10202 0.15774,0.23813 0.15774,0.38342c0,0.14521 -0.056,0.28132 -0.15774,0.38342l-0.32334,0.32484c-0.21045,0.21137 -0.55304,0.21137 -0.76341,0z" fill="#ffffff" fill-opacity="1"></path></g></g></g></g></g></svg>