<?xml version="1.0" encoding="UTF-8"?>
<svg id="SVGDoc" width="23" height="20" xmlns="http://www.w3.org/2000/svg" version="1.1" xmlns:xlink="http://www.w3.org/1999/xlink" xmlns:avocode="https://avocode.com/" viewBox="0 0 23 20"><defs></defs><desc>Generated with Avocode.</desc><g><g><title>Group 1550</title><g><title>Path 2087</title><path d="M15.90913,17.65238c-2.87856,0 -5.22035,-2.33965 -5.22035,-5.21446c0,-2.87481 2.34178,-5.21447 5.22035,-5.21447c2.87806,0 5.22035,2.33965 5.22035,5.21447c0,2.87481 -2.34234,5.21446 -5.22035,5.21446zM7.33592,15.45082c-3.60595,0 -5.46535,-1.16881 -5.46535,-1.66741v-0.34913c1.35567,0.74415 3.41496,1.12901 5.46535,1.12901c0.77498,0 1.44767,-0.07673 2.08267,-0.16774c0.0887,0.29258 0.19996,0.57469 0.32583,0.84919c-0.66259,0.13434 -1.45122,0.20609 -2.4085,0.20609zM7.33592,1.96329c3.39043,0 5.46535,1.07945 5.46535,1.6669c0,0.58745 -2.07496,1.66689 -5.46535,1.66689c-3.39039,0 -5.46535,-1.07944 -5.46535,-1.66689c0,-0.58745 2.07492,-1.6669 5.46535,-1.6669zM9.49593,10.25325c-0.70173,0.09712 -1.39081,0.18218 -2.16001,0.18218c-3.60595,0 -5.46535,-1.16881 -5.46535,-1.66741v-0.47176c1.35567,0.74415 3.41496,1.12927 5.46535,1.12927c0.92322,0 1.79796,-0.06797 2.60363,-0.19872c-0.1766,0.3262 -0.32192,0.67091 -0.44362,1.02643zM1.87057,10.86552c1.35567,0.74447 3.41496,1.12965 5.46535,1.12965c0.65261,0 1.24415,-0.05642 1.82013,-0.12605c-0.01576,0.18799 -0.02885,0.3768 -0.02885,0.56879c0,0.1421 0.01264,0.28103 0.02135,0.42098c-0.56117,0.07894 -1.1503,0.14466 -1.81263,0.14466c-3.60595,0 -5.46535,-1.1678 -5.46535,-1.6664zM11.64762,7.17508c-0.02319,0.00686 -0.04696,0.00368 -0.06983,0.01282c-1.11017,0.44328 -2.57715,0.67787 -4.24187,0.67787c-3.60595,0 -5.46535,-1.1678 -5.46535,-1.6664v-0.47184c1.35567,0.74427 3.41496,1.12933 5.46535,1.12933c2.05039,0 4.10968,-0.38506 5.46535,-1.12934v0.69604c-0.41037,0.21243 -0.79742,0.46313 -1.15366,0.75152zM15.90913,5.66367c-0.53265,0 -1.04871,0.06797 -1.54628,0.1845v-2.21798c-0.00005,-2.11828 -3.53483,-3.22667 -7.02693,-3.22667c-3.4921,0 -7.02688,1.10839 -7.02688,3.22667v10.15323c0,2.11828 3.53479,3.22718 7.02688,3.22718c1.33635,0 2.38537,-0.12306 3.26551,-0.36811c1.24346,1.56281 3.15845,2.56966 5.30765,2.56966c3.73913,0 6.78188,-3.03931 6.78188,-6.77423c0,-3.73538 -3.0428,-6.77424 -6.78183,-6.77424z" fill="#ed3544" fill-opacity="1"></path></g><g><title>Path 2088</title><path d="M17.87256,11.18793v0h-0.35033c0.26219,-0.91007 0.03516,-1.69031 -0.6427,-2.14357c-0.77213,-0.51595 -2.01777,-0.49396 -2.6682,0.04755c-0.22192,0.18511 -0.25209,0.51595 -0.06699,0.73787c0.18511,0.2209 0.51493,0.2526 0.73787,0.06647c0.24442,-0.20352 0.97462,-0.27613 1.41439,0.01841c0.10943,0.07261 0.4418,0.29556 0.24545,0.94803c-0.06711,0.1334 -0.13634,0.25395 -0.20773,0.32522h-2.52694c-0.28942,0 -0.52362,0.2342 -0.52362,0.52362c0,0.28942 0.2342,0.52362 0.52362,0.52362h4.0652c0.28942,0 0.52362,-0.2342 0.52362,-0.52362c0,-0.28942 -0.23417,-0.52361 -0.52363,-0.52361z" fill="#ed3544" fill-opacity="1"></path></g><g><title>Path 2089</title><path d="M17.87256,12.51033v0h-4.0652c-0.28942,0 -0.52362,0.2342 -0.52362,0.52362c0,0.28942 0.2342,0.52362 0.52362,0.52362h0.35085c-0.26219,0.91007 -0.03464,1.69031 0.64321,2.14357c0.37226,0.24954 0.85702,0.37328 1.33052,0.37328c0.50623,0 1.00121,-0.14113 1.33768,-0.42135c0.22193,-0.18408 0.25158,-0.51441 0.06648,-0.73736c-0.18409,-0.2209 -0.51339,-0.25158 -0.73736,-0.06648c-0.24442,0.20147 -0.97667,0.27613 -1.4154,-0.01841c-0.10943,-0.07261 -0.4418,-0.29556 -0.2434,-0.95008c0.06916,-0.13832 0.13583,-0.25363 0.20537,-0.32317h2.52726c0.28942,0 0.52362,-0.2342 0.52362,-0.52362c0,-0.28942 -0.23416,-0.52362 -0.52362,-0.52362z" fill="#ed3544" fill-opacity="1"></path></g></g></g></svg>