<?xml version="1.0" encoding="UTF-8"?>
<svg id="SVGDoc" width="30" height="34" xmlns="http://www.w3.org/2000/svg" version="1.1" xmlns:xlink="http://www.w3.org/1999/xlink" xmlns:avocode="https://avocode.com/" viewBox="0 0 30 34"><defs></defs><desc>Generated with Avocode.</desc><g><g><title>Group 1546</title><g><title>Path 2081</title><path d="M26.584,32.083h-1.27008l0.86358,-6.333h2.02368zM15.6123,25.75h1.8772l0.86359,6.33301h-1.25836zM13.75,25.21302c0.06256,-0.01337 0.12439,-0.02759 0.18604,-0.0423c0,0.00006 0,0.00012 0,0.00018l1.22797,5.24609h-1.41401zM11.25,25.3864c0.1936,0.01465 0.3869,0.03064 0.5835,0.03064c0.14081,0 0.27759,-0.01184 0.4165,-0.01776v5.01776h-1zM5.249,17.3677c0.03015,-0.66327 0.10199,-1.31018 0.19281,-1.95117h12.7236c0.02026,0.1474 0.04187,0.29413 0.05914,0.44287c-0.64374,0.77856 -1.03784,1.74432 -1.11487,2.77765c-0.66937,0.31201 -1.30554,0.8869 -1.50427,1.68036l-0.02241,0.18259c0,0.33923 0.06226,0.66571 0.16974,0.96661c-0.8457,0.38409 -1.4256,1.16162 -1.48792,2.04529c-0.70007,0.25928 -1.55402,0.40509 -2.43134,0.40509c-3.56888,0.00001 -6.58348,-3.01469 -6.58448,-6.54929zM3.75531,11.6387l1.37854,-1.37854c-0.19946,0.62872 -0.38672,1.2605 -0.55371,1.89795c-0.29028,-0.15111 -0.56818,-0.32141 -0.82483,-0.51941zM1.63177,7.9165h3.72467l-2.65106,2.65106c-0.58484,-0.77266 -0.96161,-1.68696 -1.07361,-2.65106zM8.9775,6.4165l2.36511,-2.36511c0.50653,0.67401 0.84003,1.48004 0.98444,2.36511zM7.5253,7.9165h6.19873l-1.0498,6h-6.97156c0.41783,-1.9991 1.07483,-3.9517 1.82263,-6zM6.25,5.48688l-2.42346,-2.53382c0.70086,-0.50933 1.52656,-0.85327 2.42346,-0.97839zM7.75,1.98669c0.94678,0.12531 1.80188,0.48029 2.52057,1.01569l-2.52057,2.52057zM2.74493,3.99261l2.3183,2.42389h-3.39605c0.15509,-0.90405 0.53283,-1.73132 1.07775,-2.42389zM15.9943,7.9165c0.75641,1.8681 1.47351,3.85828 1.91699,6h-3.71423l1.04993,-6zM23.167,15.4165c0.5976,0 1.083,0.4858 1.083,1.0835c0,0.59717 -0.48535,1.08301 -1.08301,1.08301c-0.59766,0 -1.08399,-0.48581 -1.08399,-1.08301c0,-0.5977 0.4863,-1.0835 1.084,-1.0835zM25.6143,18.1426c0.7109,0.4277 1.1357,1.0595 1.1357,1.6904c0,0.04102 0,0.13574 -0.00879,0.19727l-0.11328,0.21387c-0.48834,1.34564 -3.35638,3.20654 -5.27917,4.00586h-5.38855c-0.02515,-0.04761 -0.0506,-0.09686 -0.07495,-0.14062c-0.10646,-0.19047 -0.13526,-0.24217 -0.13526,-0.44237c0,-0.49316 0.45117,-0.8418 0.89063,-0.92969c0.98145,-0.16406 3.02344,-0.50488 5.04102,-1.00977c0.40234,-0.10059 0.64648,-0.50781 0.5459,-0.90918c-0.10059,-0.40234 -0.5127,-0.64648 -0.90918,-0.5459c-1.48584,0.37164 -2.99359,0.65302 -4.07452,0.84076c-0.08173,-0.146 -0.14417,-0.31439 -0.15692,-0.51068c0.12207,-0.30664 0.49902,-0.60156 0.86914,-0.69531c0.1084,-0.01855 1.07422,-0.18262 1.61426,-0.36328c0.39355,-0.13086 0.60547,-0.55566 0.47363,-0.94824c-0.13086,-0.39355 -0.56055,-0.60498 -0.94824,-0.47363c-0.10937,0.03644 -0.25787,0.0741 -0.41638,0.11127c0.19598,-0.84778 0.7052,-1.59454 1.43372,-2.08478c0.1532,0.17609 0.31989,0.34454 0.48602,0.51019c0.0838,1.34918 1.19751,2.42426 2.56793,2.42426c0.86859,0 1.63495,-0.43445 2.10345,-1.09412c0.11875,0.04671 0.24165,0.10451 0.34385,0.15371zM24.66344,25.75l-0.86359,6.33301h-1.21686v-6.33301zM21.083,25.75v6.33301h-1.21588l-0.86362,-6.33301zM27.5539,24.25h-3.01257c1.11578,-0.70508 2.22968,-1.57404 2.9267,-2.49506c0.49397,0.43766 0.78197,0.80466 0.78197,1.24506c0,0.4417 -0.2429,0.8601 -0.6961,1.25zM29.7598,24.54c-0.08923,-0.11426 -0.21271,-0.1853 -0.34601,-0.23279c0.21521,-0.41221 0.33621,-0.84941 0.33621,-1.30721c0,-1.17029 -0.76428,-1.9447 -1.55908,-2.60248c0.05238,-0.22752 0.05908,-0.43972 0.05908,-0.56452c0,-1.16309 -0.69727,-2.27539 -1.91504,-3.00391c-0.18433,-0.09216 -0.38135,-0.18903 -0.59131,-0.26642c0.00055,-0.02137 0.00635,-0.04117 0.00635,-0.06267c0,-0.74658 -0.32336,-1.41473 -0.83148,-1.8869c0.31518,-0.541 0.87138,-0.8631 1.58148,-0.8631c0.30371,0 0.49805,0.00439 0.66504,0.0874c0.37207,0.18701 0.82031,0.03467 1.00586,-0.33545c0.18555,-0.37061 0.03516,-0.8208 -0.33594,-1.00635c-0.49116,-0.2456 -0.95896,-0.2456 -1.33496,-0.2456c-1.28748,0 -2.37189,0.65417 -2.93921,1.70636c-0.12933,-0.02002 -0.25897,-0.03986 -0.3938,-0.03986c-0.85114,0 -1.60126,0.41882 -2.07233,1.0556c-0.03461,-0.04889 -0.06891,-0.09772 -0.09076,-0.14154c-0.02289,-0.04565 -0.06024,-0.07709 -0.09058,-0.11584c-0.02728,-0.03479 -0.04852,-0.07452 -0.08081,-0.10345c-0.04388,-0.03949 -0.09583,-0.06378 -0.14691,-0.09161c-0.03339,-0.01819 -0.06262,-0.04248 -0.09827,-0.05548c-0.05219,-0.01898 -0.1073,-0.02167 -0.16254,-0.02875c-0.04102,-0.00531 -0.08002,-0.01733 -0.12177,-0.01581c-0.04968,0.00195 -0.09747,0.02051 -0.14679,0.03278c-0.04272,0.0105 -0.08643,0.01001 -0.12793,0.02856c-0.00879,0.00391 -0.01642,0.00952 -0.02515,0.01349c-0.00195,0.00098 -0.00415,0.00067 -0.0061,0.00165c-0.00256,0.00128 -0.00391,0.00378 -0.00647,0.00507c-0.14069,0.06403 -0.2724,0.14093 -0.40491,0.21674c-0.45697,-2.86859 -1.41064,-5.45355 -2.39233,-7.83704c-0.00037,-0.00085 -0.00116,-0.0014 -0.00153,-0.00226c-0.03833,-0.09192 -0.09393,-0.1745 -0.16351,-0.24365c-0.0274,-0.02722 -0.06335,-0.04126 -0.0943,-0.06366c-0.04724,-0.03448 -0.09094,-0.07373 -0.14563,-0.09656c-0.09033,-0.03778 -0.18768,-0.0575 -0.28668,-0.05786c-0.00061,0 -0.0011,-0.00037 -0.00171,-0.00037h-0.9906l0.78748,-4.5h5.37012c0.41406,0 0.75,-0.33594 0.75,-0.75c0,-0.41406 -0.33594,-0.75 -0.75,-0.75h-6.00049c-0.36426,0 -0.67578,0.26172 -0.73877,0.62061l-0.94122,5.37939h-0.12421c-0.435,-3.45612 -3.29211,-6 -6.8623,-6c-3.81396,0 -6.9165,3.10303 -6.9165,6.91699c0,2.68359 1.68738,5.19 4.15045,6.30835c-0.24971,1.19977 -0.42659,2.42357 -0.48396,3.69167c0,3.66315 2.5907,6.84265 6,7.78949v5.29401h-3.9165c-0.41406,0 -0.75,0.33594 -0.75,0.75c0,0.41406 0.33594,0.75 0.75,0.75h9.68164l0.25439,1.08691c0.07959,0.33887 0.38184,0.5791 0.73047,0.5791h10.667c0.34277,0 0.6416,-0.23242 0.72656,-0.56445l2,-7.83301c0.05763,-0.22465 0.00784,-0.46285 -0.13377,-0.64555z" fill="#ffffff" fill-opacity="1"></path></g><g><title>Path 2082</title><path d="M9.6978,21.0117c-1.2198,-0.6787 -1.9478,-2.0537 -1.9478,-3.6782c0,-0.41406 -0.33594,-0.75 -0.75,-0.75c-0.41406,0 -0.75,0.33594 -0.75,0.75c0,2.17725 1.0166,4.04248 2.71924,4.98877c0.11523,0.06445 0.24023,0.09473 0.36377,0.09473c0.26318,0 0.51904,-0.13867 0.65576,-0.38574c0.20163,-0.36235 0.07133,-0.81835 -0.29097,-1.01955z" fill="#ffffff" fill-opacity="1"></path></g></g></g></svg>