<?xml version="1.0" encoding="UTF-8"?>
<svg id="SVGDoc" width="25" height="24" xmlns="http://www.w3.org/2000/svg" version="1.1" xmlns:xlink="http://www.w3.org/1999/xlink" xmlns:avocode="https://avocode.com/" viewBox="0 0 25 24"><defs></defs><desc>Generated with Avocode.</desc><g><g><title>Group 2644</title><g><title>Path 3029</title><path d="M12.68549,1.72825c2.73157,0 4.96649,2.19584 4.96649,4.8797c0,2.68385 -2.23492,4.87965 -4.96649,4.87965c-2.73155,0 -4.96648,-2.19585 -4.96648,-4.8797c0,-2.68385 2.23486,-4.87965 4.96648,-4.87965zM12.68549,13.23617c3.72488,0 6.74612,-2.96849 6.74612,-6.62823c0,-3.65974 -3.02127,-6.60793 -6.74612,-6.60793c-3.72482,0 -6.74612,2.96849 -6.74612,6.60793c0,3.63943 3.02124,6.62823 6.74612,6.62823z" fill="#f2f2f2" fill-opacity="1"></path></g><g><title>Path 3030</title><path d="M8.39492,16.3684h8.21016c3.36617,0 6.1371,2.48053 6.56816,5.69293h-21.34648c0.43102,-3.19208 3.202,-5.69293 6.56816,-5.69293zM24.11742,23.8099c0.4926,0 0.88258,-0.38626 0.88258,-0.87427c0,-4.57465 -3.75615,-8.31577 -8.39493,-8.31577h-8.21016c-4.61823,0 -8.39492,3.72073 -8.39492,8.31577c0,0.48801 0.38998,0.87427 0.88259,0.87427z" fill="#f2f2f2" fill-opacity="1"></path></g></g></g></svg>