<?xml version="1.0" encoding="UTF-8"?>
<svg id="SVGDoc" width="21" height="21" xmlns="http://www.w3.org/2000/svg" version="1.1" xmlns:xlink="http://www.w3.org/1999/xlink" xmlns:avocode="https://avocode.com/" viewBox="0 0 21 21"><defs></defs><desc>Generated with Avocode.</desc><g><g><title>Group 1566</title><g><title>Group 1565</title><g><title>Group 1563</title><g><title>Ellipse 46</title><path d="M9.2553,6.51934c0,-0.68743 0.55727,-1.2447 1.2447,-1.2447c0.68743,0 1.2447,0.55727 1.2447,1.2447c0,0.68743 -0.55727,1.2447 -1.2447,1.2447c-0.68743,0 -1.2447,-0.55727 -1.2447,-1.2447z" fill="#ed3544" fill-opacity="1"></path></g></g><g><title>Group 1564</title><g><title>Path 2101</title><path d="M11.99364,13.90457h-0.4149v0v-4.72987c0,-0.24894 -0.24894,-0.49788 -0.49788,-0.49788h-1.99152c-0.24894,0 -0.49788,0.24894 -0.49788,0.49788v1.07874c0,0.24894 0.24894,0.49788 0.49788,0.49788h0.4149v0v3.23623v0h-0.4149c-0.24894,0 -0.49788,0.24894 -0.49788,0.49788v0.99576c0,0.24894 0.24894,0.49788 0.49788,0.49788h2.98728c0.24894,0 0.49788,-0.24894 0.49788,-0.49788v-1.07874c-0.08298,-0.24894 -0.33192,-0.49788 -0.58086,-0.49788z" fill="#ed3544" fill-opacity="1"></path></g></g></g><g><title>Path 2102</title><path d="M20.59358,10.41702c0,5.50583 -4.50477,10.0106 -10.0106,10.0106c-5.50583,0 -10.0106,-4.50477 -10.0106,-10.0106c0,-5.50583 4.50477,-10.0106 10.0106,-10.0106c5.58925,0 10.0106,4.50477 10.0106,10.0106zM10.58298,1.65775c-4.83845,0 -8.75927,3.92081 -8.75927,8.75927c0,4.83846 3.92081,8.75927 8.75927,8.75927c4.83845,0 8.75927,-3.92081 8.75927,-8.75927c0,-4.83845 -3.92081,-8.75927 -8.75927,-8.75927" fill="#ed3544" fill-opacity="1"></path></g></g></g></svg>