<svg width="19" height="10" xmlns="http://www.w3.org/2000/svg" version="1.1" xmlns:xlink="http://www.w3.org/1999/xlink" viewBox="0 0 19 10">
    <g class="svg-opacity" opacity="0.5">
    <path class="fill-hover" d="M5.9122,0.06875c0.27234,-0.23084 0.68149,-0.19971 0.91428,0.07327c0.23149,0.27299 0.19907,0.68279 -0.07327,0.91493l-3.53715,3.00869v0h15.17635c0.35858,0 0.64843,0.28985 0.64843,0.64842c0,0.35858 -0.28985,0.64842 -0.64843,0.64842h-15.18803v0l3.54882,3.01777c0.27299,0.23149 0.30541,0.64064 0.07392,0.91362c-0.12774,0.15108 -0.31124,0.22825 -0.4941,0.22825c-0.14849,0 -0.29827,-0.05058 -0.41953,-0.15433l-4.88652,-4.15445c-0.14524,-0.1232 -0.22889,-0.30411 -0.22889,-0.49409c0,-0.18999 0.08365,-0.37025 0.22825,-0.4941z" fill="#22262a" fill-opacity="1"></path>
    </g>
    </svg>