<?xml version="1.0" encoding="UTF-8"?>
<svg id="SVGDoc" width="34" height="34" xmlns="http://www.w3.org/2000/svg" version="1.1" xmlns:xlink="http://www.w3.org/1999/xlink" xmlns:avocode="https://avocode.com/" viewBox="0 0 34 34"><defs></defs><desc>Generated with Avocode.</desc><g><g><title>Group 1583</title><g><title>Path 2124</title><path d="M30.9961,22.998l-0.04004,0.09766c-0.08594,0.25586 -0.1084,0.52148 -0.13086,0.77832c-0.02637,0.30859 -0.05371,0.62793 -0.18848,0.7627l-0.06543,0.08301c-0.0752,0.05273 -0.36328,0.10059 -0.53516,0.12891c-0.36133,0.06055 -0.77051,0.12793 -1.12012,0.36035c-0.32715,0.21973 -0.56836,0.53516 -0.78027,0.81348c-0.1123,0.14746 -0.2998,0.39258 -0.35352,0.42773c-0.08984,0.01074 -0.35547,-0.05469 -0.51562,-0.09473c-0.41113,-0.10352 -0.87793,-0.22168 -1.33691,-0.06641c-0.27148,0.08984 -0.5293,0.25195 -0.7793,0.40918c-0.27344,0.1709 -0.61426,0.38477 -0.81738,0.38477c-0.16504,0 -0.4043,-0.17187 -0.63477,-0.33887c-0.24121,-0.1748 -0.49121,-0.35449 -0.84961,-0.47168c-0.20854,-0.05301 -0.40774,-0.05771 -0.59864,-0.04661v-4.17261c0.62634,-0.32959 1.297,-0.63623 2.25,-0.63623c1.07227,0 1.79004,0.38574 2.48535,0.75781c0.46289,0.24805 0.89941,0.48242 1.4082,0.56738c0.23047,0.0332 0.46191,0.04883 0.6914,0.04883c0.95947,0 1.88831,-0.29315 2.65887,-0.81311c-0.04767,0.05945 -0.08923,0.11395 -0.15497,0.18909c-0.18655,0.21584 -0.41896,0.48344 -0.59275,0.83104zM14.5,32.083c-3.3877,0 -6.25,-1.56445 -6.25,-3.41602v-4.06775c1.39899,1.20905 3.65289,1.98376 6.25,1.98376c2.59711,0 4.85101,-0.77472 6.25,-1.98376v4.06775c0,1.85162 -2.8623,3.41602 -6.25,3.41602zM2.5,26.583c-0.23437,0 -0.5835,-0.15527 -0.5835,-0.58301v-6.34277c0.19135,0.05558 0.38709,0.09278 0.5835,0.09278h4.84174c-0.38129,0.5865 -0.59174,1.2332 -0.59174,1.917v4.91602h-4.25zM3.04492,13.4033c0.06299,-0.18799 0.28711,-0.48682 0.62158,-0.48682h8.5c0.4375,0 0.5498,0.20752 0.60742,0.43799l0.88745,3.42377c-1.88788,0.1236 -3.55042,0.66217 -4.77368,1.47174h-6.3877c-0.21924,0 -0.53906,-0.13574 -0.5791,-0.50439zM24.5,14.25c0.00739,0 0.01453,0.00067 0.02191,0.00067c0.20969,0.48683 0.39509,1.07713 0.39509,1.74933v0.5c0,0.11328 0,0.15576 -0.08789,0.33057c-0.03811,0.07763 -0.24321,0.08593 -0.32911,0.08593c-0.0752,0 -0.25,0 -0.25,-0.25v-0.5c0,-0.69879 -0.15533,-1.3277 -0.4306,-1.89777c0.225,-0.01223 0.452,-0.01873 0.6806,-0.01873zM15.9067,16.8318c-0.03857,-0.00433 -0.07806,-0.00702 -0.11688,-0.01099l0.22437,-0.20984c-0.03718,0.07323 -0.07508,0.14622 -0.10748,0.22083zM18.2908,17.361c-0.27148,-0.09479 -0.55359,-0.17877 -0.84479,-0.25275c0.11353,-0.18945 0.25549,-0.37195 0.41687,-0.54865c0.15812,0.24259 0.29652,0.50299 0.42792,0.80139zM19.661,15.2778c0.54999,0.67188 0.97296,1.47766 1.09387,2.14746l0.0166,0.32227c-0.04199,0.05957 -0.25195,0.16943 -0.43848,0.16943c-0.18555,0 -0.24121,0 -0.4248,-0.5625c-0.00488,-0.01562 -0.03906,-0.11816 -0.04492,-0.1333c-0.23712,-0.59137 -0.48425,-1.11017 -0.82361,-1.60321c0.19694,-0.11905 0.40164,-0.23405 0.62134,-0.34015zM14.5,18.25c3.36438,0 6.20734,1.5434 6.2464,3.37915c0.00061,0.02069 -0.00104,0.04034 0.00134,0.0611c-0.02394,1.84135 -2.87434,3.39275 -6.24774,3.39275c-3.3877,0 -6.25,-1.56445 -6.25,-3.41602c0,-1.85248 2.8623,-3.41698 6.25,-3.41698zM32.085,18.3867c0.05664,0.7959 -0.23437,1.53516 -0.82129,2.08203c-0.67969,0.63379 -1.67285,0.93066 -2.63965,0.79102c-0.0882,-0.01459 -0.1947,-0.06061 -0.29932,-0.10303c-0.28693,-0.14355 -0.52576,-0.27942 -0.74268,-0.40381c-0.82227,-0.46681 -1.47077,-0.83591 -3.08207,-0.83591c-1.0293,0 -1.82819,0.27545 -2.47296,0.57507c-0.17065,-0.4566 -0.43622,-0.88647 -0.78815,-1.28088c0.56781,-0.25879 1.01111,-0.74659 1.01111,-1.37769v-0.5c0,-0.0415 -0.00391,-0.08252 -0.00977,-0.12354c-0.13507,-0.80487 -0.54468,-1.69147 -1.11176,-2.48639c0.34235,-0.1001 0.69843,-0.18481 1.06573,-0.25458c0.366,0.4727 0.5558,1.0279 0.5558,1.6975v0.5c0,0.99756 0.75195,1.75049 1.75,1.75049c1.05566,0 1.5,-0.57324 1.6709,-0.91406c0.22754,-0.4541 0.24609,-0.74414 0.24609,-1.00293v-0.5c0,-0.61035 -0.10614,-1.15552 -0.25531,-1.63794c0.4223,0.05548 0.83533,0.12781 1.23126,0.22192c0.10431,0.33899 0.19006,0.67322 0.19006,1.08252c0,0.10352 -0.02637,0.22754 -0.05078,0.37402c-0.05176,0.29932 -0.11523,0.67188 -0.11523,1.12598c0,0.99756 0.75195,1.75049 1.75,1.75049c0.99805,0 1.75,-0.75293 1.75,-1.75049c0,-0.41406 -0.33594,-0.75 -0.75,-0.75c-0.41406,0 -0.75,0.33594 -0.75,0.75c0,0.0752 0,0.25049 -0.25,0.25049c-0.0752,0 -0.25,0 -0.25,-0.25049c0,-0.32666 0.0498,-0.61719 0.09375,-0.87354c0.04102,-0.24414 0.07227,-0.45361 0.07227,-0.62646c0,-0.19177 -0.01251,-0.37073 -0.03253,-0.54077c1.81532,0.76646 3.03333,1.95706 3.03452,3.26096zM33.583,18.333c0,-2.9574 -3.76263,-5.3783 -8.4989,-5.56482c-0.05853,-0.00684 -0.11523,-0.01282 -0.17474,-0.00543c-0.13675,-0.00375 -0.27115,-0.01275 -0.40936,-0.01275c-1.74078,0 -3.36798,0.31079 -4.74731,0.84906c-0.12994,0.0141 -0.2522,0.06366 -0.36163,0.14575c-0.21851,0.09479 -0.43042,0.19501 -0.63416,0.30157l9.08881,-8.49854c0.30176,-0.28271 0.31836,-0.75732 0.03516,-1.06006c-0.28223,-0.30322 -0.75684,-0.31836 -1.06055,-0.03564l-10.92502,10.21636l6.2805,-13.00883c0.17969,-0.37305 0.02344,-0.82129 -0.34961,-1.00146c-0.37402,-0.17871 -0.82031,-0.02295 -1.00195,0.34912l-6.31204,13.07577l-0.28467,-1.09821c-0.24512,-0.98193 -1.01563,-1.56836 -2.06104,-1.56836h-8.5c-1.05859,0 -1.80176,0.78418 -2.05908,1.56152l-1.16699,4.5l-0.02393,0.18848c0,0.03894 0.00952,0.07281 0.01135,0.11078c-0.00153,0.01953 -0.01135,0.03625 -0.01135,0.05621v8.16648c0,1.30371 1.05957,2.08301 2.0835,2.08301h4.25v0.58398c0,2.75684 3.4043,4.91602 7.75,4.91602c4.3457,0 7.75,-2.15918 7.75,-4.91602v-0.94067c0.07056,-0.01147 0.14166,-0.02319 0.17969,-0.01538c0.08496,0.0293 0.24805,0.14648 0.39063,0.24902c0.36426,0.2627 0.86328,0.62305 1.5127,0.62305c0.63477,0 1.17773,-0.34082 1.61426,-0.61426c0.16699,-0.10449 0.35645,-0.22363 0.43848,-0.25293c0.10352,-0.01074 0.35742,0.05566 0.5166,0.09473c0.41211,0.10352 0.87988,0.2207 1.33496,0.06738c0.49512,-0.16504 0.81152,-0.58008 1.09082,-0.94531c0.1416,-0.18555 0.30176,-0.39551 0.4209,-0.47559c0.08008,-0.05371 0.35254,-0.09863 0.5332,-0.12891c0.46094,-0.07617 1.08496,-0.17969 1.46289,-0.68066c0.47852,-0.51465 0.53418,-1.16602 0.5752,-1.64551c0.01172,-0.14453 0.02441,-0.29297 0.0459,-0.38672c0.08984,-0.1582 0.21875,-0.30762 0.35547,-0.46387c0.30957,-0.35742 0.69531,-0.80078 0.69531,-1.48438c0,-0.30878 -0.00677,-0.82111 -0.26123,-1.29358c0.31674,-0.63251 0.47944,-1.32551 0.42724,-2.04041z" fill="#ffffff" fill-opacity="1"></path></g><g><title>Path 2125</title><path d="M7.8333,16.6666c1.56482,0 2.83337,-0.67157 2.83337,-1.5c0,-0.82843 -1.26855,-1.5 -2.83337,-1.5c-1.56476,0 -2.83331,0.67157 -2.83331,1.5c0,0.82843 1.26856,1.5 2.83331,1.5z" fill="#ffffff" fill-opacity="1"></path></g><g><title>Ellipse 47</title><path d="M11.5,21.6666c0,-0.82843 1.34315,-1.5 3,-1.5c1.65685,0 3,0.67157 3,1.5c0,0.82843 -1.34315,1.5 -3,1.5c-1.65685,0 -3,-0.67157 -3,-1.5z" fill="#ffffff" fill-opacity="1"></path></g></g></g></svg>