<?xml version="1.0" encoding="UTF-8"?>
<svg id="SVGDoc" width="24" height="34" xmlns="http://www.w3.org/2000/svg" version="1.1" xmlns:xlink="http://www.w3.org/1999/xlink" xmlns:avocode="https://avocode.com/" viewBox="0 0 24 34"><defs></defs><desc>Generated with Avocode.</desc><g><g><title>Group 1544</title><g><title>Path 2079</title><path d="M14.6475,14.0981c-0.40918,-0.07959 -0.80176,0.18164 -0.88281,0.58789c-0.15137,0.75635 -0.62012,1.99463 -1.22168,2.89844c-0.22998,0.34473 -0.13623,0.81006 0.2085,1.03955c0.1274,0.08502 0.2719,0.12602 0.4145,0.12602c0.24316,0 0.48047,-0.11719 0.625,-0.33398c0.74316,-1.11523 1.26953,-2.5625 1.44434,-3.43506c0.08106,-0.40626 -0.18164,-0.80125 -0.58784,-0.88285z" fill="#ffffff" fill-opacity="1"></path></g><g><title>Path 2080</title><path d="M21.9336,25.3428c-0.4375,2.04102 -1.15332,3.86816 -2.18359,5.57422h-5.11212c0.72137,-1.30225 1.11212,-2.74646 1.11212,-4.25c0,-0.41406 -0.33594,-0.75 -0.75,-0.75h-5.24121c-0.00946,-0.03558 -0.02155,-0.06 -0.03125,-0.09863c-0.03906,-0.15723 -0.08643,-0.34668 -0.17383,-0.54785c-0.03857,-0.21777 -0.13721,-0.83496 -0.13721,-1.4375c0,-1.84668 0.67969,-3.87695 1.8667,-5.57227c1.74805,-2.52539 2.63379,-5.52881 2.63379,-8.92725v-0.08352h3.66602v0.0835c0,3.39893 0.88574,6.40234 2.63574,8.93018c1.18457,1.69238 1.86426,3.72168 1.86426,5.56934c-0.00002,0.74409 -0.14942,1.50978 -0.14942,1.50978zM11.8716,32.083h-7.57666c-1.34521,-1.29297 -2.1582,-2.91992 -2.33984,-4.66602h12.2559c-0.1807,1.74612 -0.9942,3.37302 -2.3394,4.66602zM13.917,7.0835h3.66602v0.6665h-3.66602zM13.917,4.9165h3.66602v0.66699h-3.66602zM12.9165,1.9165h5.6665l0.00684,1.5h-5.67334zM21.4492,17.4067c-1.57031,-2.26904 -2.36621,-4.98486 -2.36621,-8.07324v-0.08346h0.25c0.41406,0 0.75,-0.33594 0.75,-0.75c0,-0.41406 -0.33594,-0.75 -0.75,-0.75h-0.25v-0.6665h0.25c0.41406,0 0.75,-0.33594 0.75,-0.75c0,-0.41406 -0.33594,-0.75 -0.75,-0.75h-0.25v-0.74488c0.55878,-0.19226 1,-0.74072 1,-1.33862v-1.6665c0,-0.7417 -0.6748,-1.41699 -1.41602,-1.41699h-5.8335c-0.7417,0 -1.41699,0.67529 -1.41699,1.41699v1.6665c0,0.59784 0.44141,1.14624 1.00049,1.33856v0.74493h-0.25049c-0.41406,0 -0.75,0.33594 -0.75,0.75c0,0.41406 0.33594,0.75 0.75,0.75h0.25049v0.66651h-0.25049c-0.41406,0 -0.75,0.33594 -0.75,0.75c0,0.41406 0.33594,0.75 0.75,0.75h0.25049v0.0835c0,3.08789 -0.79639,5.8042 -2.36475,8.06982c-1.35742,1.93945 -2.13574,4.28223 -2.13574,6.42969c0,0.89844 0.17432,1.77734 0.18164,1.81445c0.01318,0.06543 0.03467,0.12891 0.06445,0.1875c0.01099,0.02197 0.01666,0.05737 0.026,0.08203h-7.02207c-0.41406,0 -0.75,0.33594 -0.75,0.75c0,2.54688 1.09424,4.93457 3.08154,6.72363c0.13766,0.12398 0.31686,0.19238 0.50196,0.19238h8.1665c0.18506,0 0.36426,-0.06836 0.50195,-0.19238c0.33972,-0.30591 0.64319,-0.63495 0.92969,-0.97363h6.56885c0.25684,0 0.49512,-0.13086 0.63281,-0.34766c1.24512,-1.95801 2.0957,-4.05469 2.60254,-6.42285c0.00781,-0.03711 0.18066,-0.91602 0.18066,-1.81348c-0.00001,-2.1484 -0.77831,-4.4912 -2.13381,-6.4263z" fill="#ffffff" fill-opacity="1"></path></g></g></g></svg>