<?xml version="1.0" encoding="UTF-8"?>
<svg id="SVGDoc" width="30" height="28" xmlns="http://www.w3.org/2000/svg" version="1.1" xmlns:xlink="http://www.w3.org/1999/xlink" xmlns:avocode="https://avocode.com/" viewBox="0 0 30 28"><defs></defs><desc>Generated with Avocode.</desc><g><g><title>Group 1548</title><g><title>Path 2083</title><path d="M15,13.74188c-0.55225,0 -1,0.44727 -1,1v7.38672c0,0.55273 0.44775,1 1,1c0.55225,0 1,-0.44727 1,-1v-7.38672c0,-0.5527 -0.4478,-1 -1,-1z" fill="#ffffff" fill-opacity="1"></path></g><g><title>Path 2084</title><path d="M9.4717,13.74528c-0.55029,0.04639 -0.95898,0.52979 -0.9126,1.08057l0.62207,7.38672c0.04395,0.52148 0.48096,0.91602 0.99561,0.91602c0.02783,0 0.05615,-0.00098 0.08496,-0.00391c0.55029,-0.0459 0.95898,-0.5293 0.9126,-1.08008l-0.62207,-7.38672c-0.04637,-0.5498 -0.52197,-0.9653 -1.08057,-0.9126z" fill="#ffffff" fill-opacity="1"></path></g><g><title>Path 2085</title><path d="M20.373,13.74528c-0.54004,-0.04102 -1.0332,0.36279 -1.08008,0.9126l-0.62207,7.38672c-0.04687,0.55078 0.3623,1.03418 0.91211,1.08008c0.02832,0.00293 0.05664,0.00391 0.08496,0.00391c0.51465,0 0.95117,-0.39453 0.99512,-0.91602l0.62207,-7.38672c0.04689,-0.55077 -0.36221,-1.03417 -0.91211,-1.08057z" fill="#ffffff" fill-opacity="1"></path></g><g><title>Path 2086</title><path d="M24.7383,23.57488c-0.10547,1.05273 -0.94922,1.84766 -1.96094,1.84766h-15.71046c-0.88818,0 -1.75586,-0.85449 -1.96338,-1.87305l-1.45734,-11.58641h22.6981zM2.00195,8.52748h25.99805l-0.00195,1.43555h-25.99805zM25.6895,6.52748l-6.74219,-6.26074c-0.40527,-0.37598 -1.03809,-0.35205 -1.41309,0.05225c-0.37598,0.40479 -0.35254,1.0376 0.05176,1.41357l5.16364,4.79492h-15.49922l5.16364,-4.79492c0.4043,-0.37598 0.42773,-1.00879 0.05225,-1.41357c-0.37744,-0.40527 -1.00879,-0.42871 -1.41357,-0.05225l-6.74216,6.26074h-2.53272c-1.01367,0 -1.77783,0.7993 -1.77783,1.8589v1.71777c0,1.0058 0.69171,1.76837 1.6286,1.84412l1.50226,11.9235c0.41406,2.05762 2.06934,3.55078 3.93604,3.55078h15.7104c2.04395,0 3.74219,-1.56836 3.94629,-3.61133l1.64099,-11.8622c0.94062,-0.07234 1.63542,-0.83644 1.63542,-1.84484v-1.71777c0,-1.05963 -0.7637,-1.85893 -1.7773,-1.85893z" fill="#ffffff" fill-opacity="1"></path></g></g></g></svg>