<?xml version="1.0" encoding="UTF-8"?>
<svg id="SVGDoc" width="66" height="65" xmlns="http://www.w3.org/2000/svg" version="1.1" xmlns:xlink="http://www.w3.org/1999/xlink" xmlns:avocode="https://avocode.com/" viewBox="0 0 66 65"><defs><mask id="Mask1065" x="-1" y="-1" width="2" height="2"><rect width="43" height="43" x="11" y="11" fill="#ffffff"></rect><path d="M50.89261,45.54917c-0.38404,0.66517 -0.80055,1.30498 -1.23657,1.92029c-0.1595,0.11308 -0.34128,0.25303 -0.54173,0.40203c-0.59483,0.47067 -1.26104,1.15826 -2.11813,1.81504c-0.79789,0.71745 -1.78749,1.37056 -2.75907,2.02744c-0.51254,0.29315 -1.02506,0.5863 -1.52681,0.87245c-0.50829,0.26248 -1.03979,0.47186 -1.53238,0.68386c0.3664,-0.28486 0.74506,-0.55601 1.13601,-0.81345c0.3743,-0.2869 0.74931,-0.58664 1.13877,-0.86481c0.19471,-0.1391 0.3945,-0.27525 0.59208,-0.4193l0.56317,-0.46247c0.37787,-0.30471 0.76146,-0.61936 1.14722,-0.92612c0.69501,-0.69081 1.47515,-1.31923 2.07056,-2.09403c0.30635,-0.37908 0.6452,-0.7328 0.90326,-1.13315c0.25808,-0.40034 0.50603,-0.80653 0.74037,-1.20073c-0.33106,0.30526 -0.63358,0.51447 -0.93815,0.76221c-0.30022,0.2635 -0.65733,0.52063 -1.08446,0.96899l-0.79613,0.83097v0l-0.88781,0.74495c-0.55867,0.52466 -1.20766,0.93757 -1.83427,1.37003c-0.14438,0.12182 -0.28875,0.24365 -0.43026,0.3605c-0.14873,0.10607 -0.30253,0.20921 -0.45128,0.31527c-0.29964,0.20427 -0.5914,0.40646 -0.88752,0.59289c-0.28383,0.20016 -0.61324,0.32767 -0.947,0.43943c-0.3287,0.11467 -0.66615,0.19783 -1.02243,0.24364c-0.12225,0.04857 -0.23728,0.1079 -0.36677,0.14566c-0.22285,0.12948 -0.40802,0.33364 -0.65827,0.44065c-1.13503,0.40369 -1.46767,0.15207 -2.66984,0.742c-0.02824,-0.05602 0.00615,-0.11558 0.06648,-0.17341c-0.35506,0.2186 -1.00605,0.18029 -1.40997,0.43686c-0.04351,-0.11116 -0.08989,-0.21736 -0.19523,-0.29141c-2.83295,0.33674 -5.71935,0.11313 -8.45339,-0.72409c-0.40142,-0.13247 -0.79778,-0.26204 -1.197,-0.38664c-0.40784,-0.10971 -0.76845,-0.32453 -1.15336,-0.47395c-0.33154,-0.12523 -0.6717,-0.23557 -1.00475,-0.38154c-0.31874,-0.17078 -0.64249,-0.34446 -0.97133,-0.52107c-0.33167,-0.17164 -0.75194,-0.09659 -0.93137,-0.14723c-0.73919,-0.67829 -1.49259,-1.28536 -2.28185,-2.09843c-0.17083,-0.06556 -0.48245,-0.27193 -0.81769,-0.42577c-0.0899,-0.21737 -0.19276,-0.43559 -0.3064,-0.64683c-0.25485,-0.24641 -0.5018,-0.49488 -0.7516,-0.7384l-0.66974,-0.81027c-0.21174,-0.27446 -0.46154,-0.51796 -0.64885,-0.81143l-0.5813,-0.8585v0l-0.01939,0.02192c-0.4479,-0.52998 -0.75373,-1.23604 -1.13653,-1.91373c-0.19251,-0.34279 -0.30736,-0.7268 -0.47036,-1.08566c-0.13641,-0.36997 -0.32891,-0.71276 -0.42356,-1.08509c-0.18754,-0.63116 -0.43472,-1.21731 -0.60045,-1.76968l0.05289,0.37471v0l0.08962,0.36942v0l0.1814,0.74675c0.06478,0.24919 0.10582,0.50454 0.18138,0.74673l0.25262,0.72828c-0.13383,-0.22287 -0.33521,-0.3987 -0.44747,-0.63562c-0.15275,-0.55149 -0.15164,-0.91487 -0.216,-1.26972c-0.02931,-0.1824 -0.06942,-0.35777 -0.13625,-0.56844c-0.06971,-0.20572 -0.12438,-0.44908 -0.24403,-0.74319c0.05609,-0.0272 0.11381,0.01277 0.16796,0.07051c-0.08838,-0.19666 -0.13885,-0.47068 -0.20511,-0.7406c-0.14503,-0.35508 -0.29276,-0.65879 -0.42455,-0.92019c0.07481,-0.28112 0.13159,-0.56603 0.17325,-0.85969c0.03661,-0.29657 0.06093,-0.60683 0.12196,-0.92238l-0.0213,-1.16394c-0.02342,-0.39079 0.05684,-0.77465 0.07736,-1.15993c0.04642,-0.38354 0.03091,-0.77637 0.12416,-1.15938l0.22212,-1.14253c-0.0573,-0.1456 -0.1816,-0.05851 -0.2673,-0.06167c0.08546,-0.33455 0.24295,-0.65396 0.39253,-0.97134l0.43796,-0.9451c0.2158,-0.58362 0.48493,-1.14304 0.72091,-1.715c0.27704,-0.56146 0.61469,-1.08796 0.91193,-1.63778c0.08844,-0.29311 0.22232,-0.55997 0.29563,-0.86182c0.19131,-0.07488 0.38534,-0.20111 0.57354,-0.36383c0.26023,-0.39248 0.58257,-0.72925 0.90271,-1.0739c0.79573,-0.97021 2.39385,-2.5957 4.38737,-3.92672c0.10031,-0.17375 0.18342,-0.3177 0.26542,-0.34316c0.61978,-0.30404 1.19699,-0.63926 1.79753,-0.87498c0.50692,-0.23682 1.00307,-0.46662 1.47549,-0.69027c0.4956,-0.17055 0.97318,-0.34488 1.41407,-0.51392c0.45098,-0.16322 0.88204,-0.24529 1.26041,-0.36439c0.3856,-0.1083 0.72224,-0.22502 1.01589,-0.26728c0.33811,-0.09601 0.31617,-0.22119 0.08396,-0.35526c-0.11612,-0.06704 -0.28407,-0.13754 -0.48589,-0.20773c-0.20466,-0.06521 -0.43156,-0.10355 -0.67867,-0.15356c-0.4841,-0.09418 -1.02291,-0.18684 -1.43212,-0.27087c-0.40047,-0.05251 -0.66994,-0.12204 -0.6148,-0.2292c0.31333,-0.46111 0.78193,-0.75976 1.35789,-1.0229c0.28764,-0.12515 0.60123,-0.24856 0.93499,-0.36032c0.34754,-0.07733 0.71814,-0.14797 1.10961,-0.21979c1.56661,-0.30011 3.48683,-0.30339 5.78077,-0.28946c0.62725,0.04445 0.41892,-0.04936 0.04342,-0.18011c-0.18884,-0.06932 -0.41875,-0.1491 -0.60472,-0.22339c-0.18161,-0.05852 -0.32145,-0.1194 -0.32881,-0.1766c0.20127,-0.11545 0.45671,-0.17315 0.75034,-0.21541c-0.0749,-0.01015 -0.14696,-0.02528 -0.22186,-0.03544c0.09075,0.00606 0.18653,0.01503 0.28231,0.024c0.12307,-0.01498 0.2512,-0.02705 0.38724,-0.04117c0.39978,0.06535 0.79888,0.14354 1.19225,0.23166c0.01801,0.00379 0.03097,0.00464 0.04898,0.00843c0.2572,0.05584 0.51658,0.11954 0.77309,0.18822c1.99154,0.51443 3.95003,1.30762 5.82292,2.38893c11.01529,6.35969 14.87361,20.28903 8.62012,31.12041z" fill="#000000"></path></mask><filter id="Filter1069" width="93" height="93" x="-14" y="-14" filterUnits="userSpaceOnUse"><feOffset dx="0" dy="0" result="FeOffset1070Out" in="SourceGraphic"></feOffset><feGaussianBlur stdDeviation="6 6" result="FeGaussianBlur1071Out" in="FeOffset1070Out"></feGaussianBlur></filter></defs><desc>Generated with Avocode.</desc><g><g><title>Path 13</title><g filter="url(#Filter1069)"><path d="M50.89261,45.54917c-0.38404,0.66517 -0.80055,1.30498 -1.23657,1.92029c-0.1595,0.11308 -0.34128,0.25303 -0.54173,0.40203c-0.59483,0.47067 -1.26104,1.15826 -2.11813,1.81504c-0.79789,0.71745 -1.78749,1.37056 -2.75907,2.02744c-0.51254,0.29315 -1.02506,0.5863 -1.52681,0.87245c-0.50829,0.26248 -1.03979,0.47186 -1.53238,0.68386c0.3664,-0.28486 0.74506,-0.55601 1.13601,-0.81345c0.3743,-0.2869 0.74931,-0.58664 1.13877,-0.86481c0.19471,-0.1391 0.3945,-0.27525 0.59208,-0.4193l0.56317,-0.46247c0.37787,-0.30471 0.76146,-0.61936 1.14722,-0.92612c0.69501,-0.69081 1.47515,-1.31923 2.07056,-2.09403c0.30635,-0.37908 0.6452,-0.7328 0.90326,-1.13315c0.25808,-0.40034 0.50603,-0.80653 0.74037,-1.20073c-0.33106,0.30526 -0.63358,0.51447 -0.93815,0.76221c-0.30022,0.2635 -0.65733,0.52063 -1.08446,0.96899l-0.79613,0.83097v0l-0.88781,0.74495c-0.55867,0.52466 -1.20766,0.93757 -1.83427,1.37003c-0.14438,0.12182 -0.28875,0.24365 -0.43026,0.3605c-0.14873,0.10607 -0.30253,0.20921 -0.45128,0.31527c-0.29964,0.20427 -0.5914,0.40646 -0.88752,0.59289c-0.28383,0.20016 -0.61324,0.32767 -0.947,0.43943c-0.3287,0.11467 -0.66615,0.19783 -1.02243,0.24364c-0.12225,0.04857 -0.23728,0.1079 -0.36677,0.14566c-0.22285,0.12948 -0.40802,0.33364 -0.65827,0.44065c-1.13503,0.40369 -1.46767,0.15207 -2.66984,0.742c-0.02824,-0.05602 0.00615,-0.11558 0.06648,-0.17341c-0.35506,0.2186 -1.00605,0.18029 -1.40997,0.43686c-0.04351,-0.11116 -0.08989,-0.21736 -0.19523,-0.29141c-2.83295,0.33674 -5.71935,0.11313 -8.45339,-0.72409c-0.40142,-0.13247 -0.79778,-0.26204 -1.197,-0.38664c-0.40784,-0.10971 -0.76845,-0.32453 -1.15336,-0.47395c-0.33154,-0.12523 -0.6717,-0.23557 -1.00475,-0.38154c-0.31874,-0.17078 -0.64249,-0.34446 -0.97133,-0.52107c-0.33167,-0.17164 -0.75194,-0.09659 -0.93137,-0.14723c-0.73919,-0.67829 -1.49259,-1.28536 -2.28185,-2.09843c-0.17083,-0.06556 -0.48245,-0.27193 -0.81769,-0.42577c-0.0899,-0.21737 -0.19276,-0.43559 -0.3064,-0.64683c-0.25485,-0.24641 -0.5018,-0.49488 -0.7516,-0.7384l-0.66974,-0.81027c-0.21174,-0.27446 -0.46154,-0.51796 -0.64885,-0.81143l-0.5813,-0.8585v0l-0.01939,0.02192c-0.4479,-0.52998 -0.75373,-1.23604 -1.13653,-1.91373c-0.19251,-0.34279 -0.30736,-0.7268 -0.47036,-1.08566c-0.13641,-0.36997 -0.32891,-0.71276 -0.42356,-1.08509c-0.18754,-0.63116 -0.43472,-1.21731 -0.60045,-1.76968l0.05289,0.37471v0l0.08962,0.36942v0l0.1814,0.74675c0.06478,0.24919 0.10582,0.50454 0.18138,0.74673l0.25262,0.72828c-0.13383,-0.22287 -0.33521,-0.3987 -0.44747,-0.63562c-0.15275,-0.55149 -0.15164,-0.91487 -0.216,-1.26972c-0.02931,-0.1824 -0.06942,-0.35777 -0.13625,-0.56844c-0.06971,-0.20572 -0.12438,-0.44908 -0.24403,-0.74319c0.05609,-0.0272 0.11381,0.01277 0.16796,0.07051c-0.08838,-0.19666 -0.13885,-0.47068 -0.20511,-0.7406c-0.14503,-0.35508 -0.29276,-0.65879 -0.42455,-0.92019c0.07481,-0.28112 0.13159,-0.56603 0.17325,-0.85969c0.03661,-0.29657 0.06093,-0.60683 0.12196,-0.92238l-0.0213,-1.16394c-0.02342,-0.39079 0.05684,-0.77465 0.07736,-1.15993c0.04642,-0.38354 0.03091,-0.77637 0.12416,-1.15938l0.22212,-1.14253c-0.0573,-0.1456 -0.1816,-0.05851 -0.2673,-0.06167c0.08546,-0.33455 0.24295,-0.65396 0.39253,-0.97134l0.43796,-0.9451c0.2158,-0.58362 0.48493,-1.14304 0.72091,-1.715c0.27704,-0.56146 0.61469,-1.08796 0.91193,-1.63778c0.08844,-0.29311 0.22232,-0.55997 0.29563,-0.86182c0.19131,-0.07488 0.38534,-0.20111 0.57354,-0.36383c0.26023,-0.39248 0.58257,-0.72925 0.90271,-1.0739c0.79573,-0.97021 2.39385,-2.5957 4.38737,-3.92672c0.10031,-0.17375 0.18342,-0.3177 0.26542,-0.34316c0.61978,-0.30404 1.19699,-0.63926 1.79753,-0.87498c0.50692,-0.23682 1.00307,-0.46662 1.47549,-0.69027c0.4956,-0.17055 0.97318,-0.34488 1.41407,-0.51392c0.45098,-0.16322 0.88204,-0.24529 1.26041,-0.36439c0.3856,-0.1083 0.72224,-0.22502 1.01589,-0.26728c0.33811,-0.09601 0.31617,-0.22119 0.08396,-0.35526c-0.11612,-0.06704 -0.28407,-0.13754 -0.48589,-0.20773c-0.20466,-0.06521 -0.43156,-0.10355 -0.67867,-0.15356c-0.4841,-0.09418 -1.02291,-0.18684 -1.43212,-0.27087c-0.40047,-0.05251 -0.66994,-0.12204 -0.6148,-0.2292c0.31333,-0.46111 0.78193,-0.75976 1.35789,-1.0229c0.28764,-0.12515 0.60123,-0.24856 0.93499,-0.36032c0.34754,-0.07733 0.71814,-0.14797 1.10961,-0.21979c1.56661,-0.30011 3.48683,-0.30339 5.78077,-0.28946c0.62725,0.04445 0.41892,-0.04936 0.04342,-0.18011c-0.18884,-0.06932 -0.41875,-0.1491 -0.60472,-0.22339c-0.18161,-0.05852 -0.32145,-0.1194 -0.32881,-0.1766c0.20127,-0.11545 0.45671,-0.17315 0.75034,-0.21541c-0.0749,-0.01015 -0.14696,-0.02528 -0.22186,-0.03544c0.09075,0.00606 0.18653,0.01503 0.28231,0.024c0.12307,-0.01498 0.2512,-0.02705 0.38724,-0.04117c0.39978,0.06535 0.79888,0.14354 1.19225,0.23166c0.01801,0.00379 0.03097,0.00464 0.04898,0.00843c0.2572,0.05584 0.51658,0.11954 0.77309,0.18822c1.99154,0.51443 3.95003,1.30762 5.82292,2.38893c11.01529,6.35969 14.87361,20.28903 8.62012,31.12041z" fill="none" stroke-opacity="0.2" stroke-width="0" mask="url(&quot;#Mask1065&quot;)"></path><path d="M50.89261,45.54917c-0.38404,0.66517 -0.80055,1.30498 -1.23657,1.92029c-0.1595,0.11308 -0.34128,0.25303 -0.54173,0.40203c-0.59483,0.47067 -1.26104,1.15826 -2.11813,1.81504c-0.79789,0.71745 -1.78749,1.37056 -2.75907,2.02744c-0.51254,0.29315 -1.02506,0.5863 -1.52681,0.87245c-0.50829,0.26248 -1.03979,0.47186 -1.53238,0.68386c0.3664,-0.28486 0.74506,-0.55601 1.13601,-0.81345c0.3743,-0.2869 0.74931,-0.58664 1.13877,-0.86481c0.19471,-0.1391 0.3945,-0.27525 0.59208,-0.4193l0.56317,-0.46247c0.37787,-0.30471 0.76146,-0.61936 1.14722,-0.92612c0.69501,-0.69081 1.47515,-1.31923 2.07056,-2.09403c0.30635,-0.37908 0.6452,-0.7328 0.90326,-1.13315c0.25808,-0.40034 0.50603,-0.80653 0.74037,-1.20073c-0.33106,0.30526 -0.63358,0.51447 -0.93815,0.76221c-0.30022,0.2635 -0.65733,0.52063 -1.08446,0.96899l-0.79613,0.83097v0l-0.88781,0.74495c-0.55867,0.52466 -1.20766,0.93757 -1.83427,1.37003c-0.14438,0.12182 -0.28875,0.24365 -0.43026,0.3605c-0.14873,0.10607 -0.30253,0.20921 -0.45128,0.31527c-0.29964,0.20427 -0.5914,0.40646 -0.88752,0.59289c-0.28383,0.20016 -0.61324,0.32767 -0.947,0.43943c-0.3287,0.11467 -0.66615,0.19783 -1.02243,0.24364c-0.12225,0.04857 -0.23728,0.1079 -0.36677,0.14566c-0.22285,0.12948 -0.40802,0.33364 -0.65827,0.44065c-1.13503,0.40369 -1.46767,0.15207 -2.66984,0.742c-0.02824,-0.05602 0.00615,-0.11558 0.06648,-0.17341c-0.35506,0.2186 -1.00605,0.18029 -1.40997,0.43686c-0.04351,-0.11116 -0.08989,-0.21736 -0.19523,-0.29141c-2.83295,0.33674 -5.71935,0.11313 -8.45339,-0.72409c-0.40142,-0.13247 -0.79778,-0.26204 -1.197,-0.38664c-0.40784,-0.10971 -0.76845,-0.32453 -1.15336,-0.47395c-0.33154,-0.12523 -0.6717,-0.23557 -1.00475,-0.38154c-0.31874,-0.17078 -0.64249,-0.34446 -0.97133,-0.52107c-0.33167,-0.17164 -0.75194,-0.09659 -0.93137,-0.14723c-0.73919,-0.67829 -1.49259,-1.28536 -2.28185,-2.09843c-0.17083,-0.06556 -0.48245,-0.27193 -0.81769,-0.42577c-0.0899,-0.21737 -0.19276,-0.43559 -0.3064,-0.64683c-0.25485,-0.24641 -0.5018,-0.49488 -0.7516,-0.7384l-0.66974,-0.81027c-0.21174,-0.27446 -0.46154,-0.51796 -0.64885,-0.81143l-0.5813,-0.8585v0l-0.01939,0.02192c-0.4479,-0.52998 -0.75373,-1.23604 -1.13653,-1.91373c-0.19251,-0.34279 -0.30736,-0.7268 -0.47036,-1.08566c-0.13641,-0.36997 -0.32891,-0.71276 -0.42356,-1.08509c-0.18754,-0.63116 -0.43472,-1.21731 -0.60045,-1.76968l0.05289,0.37471v0l0.08962,0.36942v0l0.1814,0.74675c0.06478,0.24919 0.10582,0.50454 0.18138,0.74673l0.25262,0.72828c-0.13383,-0.22287 -0.33521,-0.3987 -0.44747,-0.63562c-0.15275,-0.55149 -0.15164,-0.91487 -0.216,-1.26972c-0.02931,-0.1824 -0.06942,-0.35777 -0.13625,-0.56844c-0.06971,-0.20572 -0.12438,-0.44908 -0.24403,-0.74319c0.05609,-0.0272 0.11381,0.01277 0.16796,0.07051c-0.08838,-0.19666 -0.13885,-0.47068 -0.20511,-0.7406c-0.14503,-0.35508 -0.29276,-0.65879 -0.42455,-0.92019c0.07481,-0.28112 0.13159,-0.56603 0.17325,-0.85969c0.03661,-0.29657 0.06093,-0.60683 0.12196,-0.92238l-0.0213,-1.16394c-0.02342,-0.39079 0.05684,-0.77465 0.07736,-1.15993c0.04642,-0.38354 0.03091,-0.77637 0.12416,-1.15938l0.22212,-1.14253c-0.0573,-0.1456 -0.1816,-0.05851 -0.2673,-0.06167c0.08546,-0.33455 0.24295,-0.65396 0.39253,-0.97134l0.43796,-0.9451c0.2158,-0.58362 0.48493,-1.14304 0.72091,-1.715c0.27704,-0.56146 0.61469,-1.08796 0.91193,-1.63778c0.08844,-0.29311 0.22232,-0.55997 0.29563,-0.86182c0.19131,-0.07488 0.38534,-0.20111 0.57354,-0.36383c0.26023,-0.39248 0.58257,-0.72925 0.90271,-1.0739c0.79573,-0.97021 2.39385,-2.5957 4.38737,-3.92672c0.10031,-0.17375 0.18342,-0.3177 0.26542,-0.34316c0.61978,-0.30404 1.19699,-0.63926 1.79753,-0.87498c0.50692,-0.23682 1.00307,-0.46662 1.47549,-0.69027c0.4956,-0.17055 0.97318,-0.34488 1.41407,-0.51392c0.45098,-0.16322 0.88204,-0.24529 1.26041,-0.36439c0.3856,-0.1083 0.72224,-0.22502 1.01589,-0.26728c0.33811,-0.09601 0.31617,-0.22119 0.08396,-0.35526c-0.11612,-0.06704 -0.28407,-0.13754 -0.48589,-0.20773c-0.20466,-0.06521 -0.43156,-0.10355 -0.67867,-0.15356c-0.4841,-0.09418 -1.02291,-0.18684 -1.43212,-0.27087c-0.40047,-0.05251 -0.66994,-0.12204 -0.6148,-0.2292c0.31333,-0.46111 0.78193,-0.75976 1.35789,-1.0229c0.28764,-0.12515 0.60123,-0.24856 0.93499,-0.36032c0.34754,-0.07733 0.71814,-0.14797 1.10961,-0.21979c1.56661,-0.30011 3.48683,-0.30339 5.78077,-0.28946c0.62725,0.04445 0.41892,-0.04936 0.04342,-0.18011c-0.18884,-0.06932 -0.41875,-0.1491 -0.60472,-0.22339c-0.18161,-0.05852 -0.32145,-0.1194 -0.32881,-0.1766c0.20127,-0.11545 0.45671,-0.17315 0.75034,-0.21541c-0.0749,-0.01015 -0.14696,-0.02528 -0.22186,-0.03544c0.09075,0.00606 0.18653,0.01503 0.28231,0.024c0.12307,-0.01498 0.2512,-0.02705 0.38724,-0.04117c0.39978,0.06535 0.79888,0.14354 1.19225,0.23166c0.01801,0.00379 0.03097,0.00464 0.04898,0.00843c0.2572,0.05584 0.51658,0.11954 0.77309,0.18822c1.99154,0.51443 3.95003,1.30762 5.82292,2.38893c11.01529,6.35969 14.87361,20.28903 8.62012,31.12041z" fill="#000000" fill-opacity="0.2"></path></g><path d="M50.89261,45.54917c-0.38404,0.66517 -0.80055,1.30498 -1.23657,1.92029c-0.1595,0.11308 -0.34128,0.25303 -0.54173,0.40203c-0.59483,0.47067 -1.26104,1.15826 -2.11813,1.81504c-0.79789,0.71745 -1.78749,1.37056 -2.75907,2.02744c-0.51254,0.29315 -1.02506,0.5863 -1.52681,0.87245c-0.50829,0.26248 -1.03979,0.47186 -1.53238,0.68386c0.3664,-0.28486 0.74506,-0.55601 1.13601,-0.81345c0.3743,-0.2869 0.74931,-0.58664 1.13877,-0.86481c0.19471,-0.1391 0.3945,-0.27525 0.59208,-0.4193l0.56317,-0.46247c0.37787,-0.30471 0.76146,-0.61936 1.14722,-0.92612c0.69501,-0.69081 1.47515,-1.31923 2.07056,-2.09403c0.30635,-0.37908 0.6452,-0.7328 0.90326,-1.13315c0.25808,-0.40034 0.50603,-0.80653 0.74037,-1.20073c-0.33106,0.30526 -0.63358,0.51447 -0.93815,0.76221c-0.30022,0.2635 -0.65733,0.52063 -1.08446,0.96899l-0.79613,0.83097v0l-0.88781,0.74495c-0.55867,0.52466 -1.20766,0.93757 -1.83427,1.37003c-0.14438,0.12182 -0.28875,0.24365 -0.43026,0.3605c-0.14873,0.10607 -0.30253,0.20921 -0.45128,0.31527c-0.29964,0.20427 -0.5914,0.40646 -0.88752,0.59289c-0.28383,0.20016 -0.61324,0.32767 -0.947,0.43943c-0.3287,0.11467 -0.66615,0.19783 -1.02243,0.24364c-0.12225,0.04857 -0.23728,0.1079 -0.36677,0.14566c-0.22285,0.12948 -0.40802,0.33364 -0.65827,0.44065c-1.13503,0.40369 -1.46767,0.15207 -2.66984,0.742c-0.02824,-0.05602 0.00615,-0.11558 0.06648,-0.17341c-0.35506,0.2186 -1.00605,0.18029 -1.40997,0.43686c-0.04351,-0.11116 -0.08989,-0.21736 -0.19523,-0.29141c-2.83295,0.33674 -5.71935,0.11313 -8.45339,-0.72409c-0.40142,-0.13247 -0.79778,-0.26204 -1.197,-0.38664c-0.40784,-0.10971 -0.76845,-0.32453 -1.15336,-0.47395c-0.33154,-0.12523 -0.6717,-0.23557 -1.00475,-0.38154c-0.31874,-0.17078 -0.64249,-0.34446 -0.97133,-0.52107c-0.33167,-0.17164 -0.75194,-0.09659 -0.93137,-0.14723c-0.73919,-0.67829 -1.49259,-1.28536 -2.28185,-2.09843c-0.17083,-0.06556 -0.48245,-0.27193 -0.81769,-0.42577c-0.0899,-0.21737 -0.19276,-0.43559 -0.3064,-0.64683c-0.25485,-0.24641 -0.5018,-0.49488 -0.7516,-0.7384l-0.66974,-0.81027c-0.21174,-0.27446 -0.46154,-0.51796 -0.64885,-0.81143l-0.5813,-0.8585v0l-0.01939,0.02192c-0.4479,-0.52998 -0.75373,-1.23604 -1.13653,-1.91373c-0.19251,-0.34279 -0.30736,-0.7268 -0.47036,-1.08566c-0.13641,-0.36997 -0.32891,-0.71276 -0.42356,-1.08509c-0.18754,-0.63116 -0.43472,-1.21731 -0.60045,-1.76968l0.05289,0.37471v0l0.08962,0.36942v0l0.1814,0.74675c0.06478,0.24919 0.10582,0.50454 0.18138,0.74673l0.25262,0.72828c-0.13383,-0.22287 -0.33521,-0.3987 -0.44747,-0.63562c-0.15275,-0.55149 -0.15164,-0.91487 -0.216,-1.26972c-0.02931,-0.1824 -0.06942,-0.35777 -0.13625,-0.56844c-0.06971,-0.20572 -0.12438,-0.44908 -0.24403,-0.74319c0.05609,-0.0272 0.11381,0.01277 0.16796,0.07051c-0.08838,-0.19666 -0.13885,-0.47068 -0.20511,-0.7406c-0.14503,-0.35508 -0.29276,-0.65879 -0.42455,-0.92019c0.07481,-0.28112 0.13159,-0.56603 0.17325,-0.85969c0.03661,-0.29657 0.06093,-0.60683 0.12196,-0.92238l-0.0213,-1.16394c-0.02342,-0.39079 0.05684,-0.77465 0.07736,-1.15993c0.04642,-0.38354 0.03091,-0.77637 0.12416,-1.15938l0.22212,-1.14253c-0.0573,-0.1456 -0.1816,-0.05851 -0.2673,-0.06167c0.08546,-0.33455 0.24295,-0.65396 0.39253,-0.97134l0.43796,-0.9451c0.2158,-0.58362 0.48493,-1.14304 0.72091,-1.715c0.27704,-0.56146 0.61469,-1.08796 0.91193,-1.63778c0.08844,-0.29311 0.22232,-0.55997 0.29563,-0.86182c0.19131,-0.07488 0.38534,-0.20111 0.57354,-0.36383c0.26023,-0.39248 0.58257,-0.72925 0.90271,-1.0739c0.79573,-0.97021 2.39385,-2.5957 4.38737,-3.92672c0.10031,-0.17375 0.18342,-0.3177 0.26542,-0.34316c0.61978,-0.30404 1.19699,-0.63926 1.79753,-0.87498c0.50692,-0.23682 1.00307,-0.46662 1.47549,-0.69027c0.4956,-0.17055 0.97318,-0.34488 1.41407,-0.51392c0.45098,-0.16322 0.88204,-0.24529 1.26041,-0.36439c0.3856,-0.1083 0.72224,-0.22502 1.01589,-0.26728c0.33811,-0.09601 0.31617,-0.22119 0.08396,-0.35526c-0.11612,-0.06704 -0.28407,-0.13754 -0.48589,-0.20773c-0.20466,-0.06521 -0.43156,-0.10355 -0.67867,-0.15356c-0.4841,-0.09418 -1.02291,-0.18684 -1.43212,-0.27087c-0.40047,-0.05251 -0.66994,-0.12204 -0.6148,-0.2292c0.31333,-0.46111 0.78193,-0.75976 1.35789,-1.0229c0.28764,-0.12515 0.60123,-0.24856 0.93499,-0.36032c0.34754,-0.07733 0.71814,-0.14797 1.10961,-0.21979c1.56661,-0.30011 3.48683,-0.30339 5.78077,-0.28946c0.62725,0.04445 0.41892,-0.04936 0.04342,-0.18011c-0.18884,-0.06932 -0.41875,-0.1491 -0.60472,-0.22339c-0.18161,-0.05852 -0.32145,-0.1194 -0.32881,-0.1766c0.20127,-0.11545 0.45671,-0.17315 0.75034,-0.21541c-0.0749,-0.01015 -0.14696,-0.02528 -0.22186,-0.03544c0.09075,0.00606 0.18653,0.01503 0.28231,0.024c0.12307,-0.01498 0.2512,-0.02705 0.38724,-0.04117c0.39978,0.06535 0.79888,0.14354 1.19225,0.23166c0.01801,0.00379 0.03097,0.00464 0.04898,0.00843c0.2572,0.05584 0.51658,0.11954 0.77309,0.18822c1.99154,0.51443 3.95003,1.30762 5.82292,2.38893c11.01529,6.35969 14.87361,20.28903 8.62012,31.12041z" fill="#ffffff" fill-opacity="1"></path></g></g></svg>