<?xml version="1.0" encoding="UTF-8"?>
<svg id="SVGDoc" width="30" height="31" xmlns="http://www.w3.org/2000/svg" version="1.1" xmlns:xlink="http://www.w3.org/1999/xlink" xmlns:avocode="https://avocode.com/" viewBox="0 0 30 31"><defs></defs><desc>Generated with Avocode.</desc><g><g><title>Group 1577</title><g><title>Path 2115</title><path d="M16.667,5.90137c-0.2959,-0.28711 -0.76562,-0.28467 -1.05566,0.00684c-0.29199,0.29346 -0.29199,0.76855 0.00195,1.06104c0.16895,0.16846 0.33398,0.25146 0.5,0.33301c0.14648,0.146 0.33789,0.21875 0.5293,0.21875c0.19238,0 0.38477,-0.07373 0.53125,-0.22021c0.29199,-0.29346 0.29199,-0.76855 -0.00195,-1.06104c-0.16799,-0.16795 -0.33299,-0.25049 -0.50489,-0.33838z" fill="#ffffff" fill-opacity="1"></path></g><g><title>Path 2116</title><path d="M14.0879,4.4082l-2.49951,-1c-0.38232,-0.15332 -0.82129,0.03271 -0.9751,0.41748c-0.15381,0.38477 0.0332,0.82129 0.41748,0.9751l2.50049,1c0.09082,0.03662 0.18555,0.05371 0.27832,0.05371c0.29785,0 0.5791,-0.17822 0.69629,-0.47119c0.15433,-0.38476 -0.03317,-0.82129 -0.41797,-0.9751z" fill="#ffffff" fill-opacity="1"></path></g><g><title>Path 2117</title><path d="M28.0723,20.8926l-2.44531,0.81738c-0.14941,0.03906 -0.30371,0.02051 -0.41699,-0.0459c-0.08789,-0.05371 -0.14648,-0.13379 -0.17187,-0.23633c-1.34277,-5.53809 -4.83691,-10.2607 -9.89355,-13.3271l-1,-0.50049c-0.37012,-0.18262 -0.82129,-0.0332 -1.00586,0.33691c-0.18506,0.3706 -0.03418,0.8208 0.33594,1.00537l0.94531,0.46973c4.61932,2.80487 7.8504,7.14893 9.12366,12.2433l-13.4682,5.08832c-0.49054,-1.24622 -1.72589,-2.13922 -3.26599,-2.13922c-1.83331,0 -3.33331,1.5 -3.33331,3.33331c0,0.43512 0.07513,0.8327 0.20135,1.20477c-0.07581,0.02612 -0.14014,0.04767 -0.17694,0.05853c-0.60693,0.1084 -1.1958,-0.09082 -1.5708,-0.53613c-0.375,-0.44434 -0.46582,-1.04102 -0.25146,-1.62988l4.49609,-11.9902l0.0799,-0.20428c0.19873,0.0578 0.39618,0.09723 0.55518,0.09723c1.16669,0 2.16669,-1 2.16669,-2.16663c0,-0.78253 -0.51294,-1.45789 -1.21405,-1.79669l1.4071,-3.79956c0.76099,0.15326 1.53534,0.46216 2.3548,0.78937l0.00732,0.00293c0.38525,0.15576 0.81836,-0.03516 0.97119,-0.41943c0.15381,-0.38477 -0.03711,-0.82275 -0.42187,-0.97607c-0.84863,-0.33936 -1.72607,-0.68994 -2.58887,-0.86133c-0.18164,-0.04541 -0.3081,-0.16357 -0.35254,-0.26074c-0.02783,-0.06006 -0.02588,-0.10937 0.00781,-0.17627c0.01563,-0.03174 0.0293,-0.06445 0.04053,-0.09814l0.84961,-2.55566c0.04004,-0.15918 0.14258,-0.23633 0.2002,-0.26807c0.07666,-0.04199 0.14209,-0.04443 0.22021,-0.02002c8.95947,2.28027 15.8394,9.15771 17.9575,17.9556c0.05853,0.2343 -0.00587,0.5194 -0.34277,0.6054zM5.1428,28.2712c0,-0.16669 0,-0.33337 0,-0.33337c0,-1 0.83331,-1.66663 1.66663,-1.66663c0.66669,0 1.33337,0.33331 1.5,1c-1.00003,0.33341 -2.33333,0.66671 -3.16663,1zM29.8721,19.9287c-2.2471,-9.333 -9.545,-16.6328 -18.9927,-19.03563c-0.43506,-0.14648 -0.93262,-0.09375 -1.36426,0.14404c-0.46338,0.2544 -0.80322,0.69873 -0.91699,1.16357l-0.81885,2.45605c-0.21191,0.45996 -0.21338,0.96191 -0.00342,1.41943c0.03333,0.07257 0.08289,0.13629 0.12567,0.20392l-1.62372,4.38397l-1.50391,3.84375l-4.50292,12.0078c-0.39941,1.09863 -0.20801,2.26367 0.51269,3.11719c0.59814,0.70801 1.46045,1.09766 2.38623,1.09766c0.2002,0 0.40332,-0.01758 0.60693,-0.05469l-0.00049,-0.00386c0.11804,-0.02612 0.35126,-0.09863 0.88123,-0.28796c0.96619,-0.32129 5.65179,-2.11267 5.65179,-2.11267c0,-0.00555 0,-0.008 0,-0.01324l14.1027,-5.32837c0.0094,0.00586 0.01685,0.01392 0.02637,0.01959c0.30176,0.18164 0.64453,0.27734 1.01465,0.27734c0.19141,0 0.38965,-0.02539 0.59375,-0.07715l2.44531,-0.81738c1.04494,-0.26176 1.65044,-1.32036 1.37994,-2.40336z" fill="#ffffff" fill-opacity="1"></path></g><g><title>Path 2118</title><path d="M17.3094,15.9379c1.16669,0 2.16669,1 2.16669,2.16669c0,1.16669 -1,2.16669 -2.16669,2.16669c-1.16663,0 -2.16663,-0.83337 -2.16663,-2.16669c0,-1.33332 1.00003,-2.16669 2.16663,-2.16669zM17.3094,21.9379c2.16669,0 3.83337,-1.66663 3.83337,-3.83331c0,-2.16668 -1.66669,-3.83331 -3.83337,-3.83331c-2.16663,0 -3.83331,1.66663 -3.83331,3.83331c0,2.16668 1.66671,3.83331 3.83331,3.83331z" fill="#ffffff" fill-opacity="1"></path></g></g></g></svg>