<?xml version="1.0" encoding="UTF-8"?>
<svg id="SVGDoc" width="46" height="43" xmlns="http://www.w3.org/2000/svg" version="1.1" xmlns:xlink="http://www.w3.org/1999/xlink" xmlns:avocode="https://avocode.com/" viewBox="0 0 46 43"><defs></defs><desc>Generated with Avocode.</desc><g><g><title>ca666057-dfc3-403e-967f-9fd8c04af14d</title><g><title>Path 3093</title><path d="M0,22.76045v0v12.8288c0,3.6292 2.91124,6.66759 6.57108,6.66759h32.68904c3.57666,0 6.57108,-2.95399 6.57108,-6.66759v-12.8288v0z" fill="#08080b" fill-opacity="1"></path></g><g><title>Path 3094</title><path d="M41.27361,33.51486c0.08438,-0.3376 0.42199,-0.42201 0.844,-0.3376c0.25319,0.08439 0.5064,0.3376 0.33759,0.75959c-0.0844,0.33761 -0.50639,0.33761 -0.844,0.33761c-0.1688,-0.0844 -0.2532,-0.0844 -0.33759,-0.2532c-0.08441,-0.1688 -0.08441,-0.33761 0,-0.50639z" fill="#ffffff" fill-opacity="1"></path></g><g><title>Path 3095</title><path d="M22.2901,33.17706c1.0128,-0.2532 1.0972,0.9284 0.422,1.09721" fill="#ffffff" fill-opacity="1"></path></g><g><title>Path 3096</title><path d="M7.00519,37.44605c-0.1688,0.16879 -0.0844,0.3376 -0.5908,0.67519c-0.9284,0.5908 -2.11,0.2532 -2.954,-0.08439c0,-0.42201 0.0844,-0.75961 0.1688,-1.0972h0.7596v0l0.1688,0.5908c0.5908,0.3376 1.688,-0.0844 1.266,-0.84401c-0.1688,-0.3376 -1.266,-0.422 -1.688,-0.7596c-0.5908,-0.422 -0.844,-1.09719 -0.5908,-1.7724c0.1688,-0.59079 0.6752,-0.844 1.3504,-1.01279c0.6752,0 1.3504,0.0844 1.8568,0.3376c0,1.266 -0.2532,1.0972 -0.9284,1.0972l-0.1688,-0.5908c-0.422,0 -1.0972,0 -1.0128,0.5908c0.0844,0.5064 0.5908,0.5064 1.0972,0.6752c1.1816,0.422 1.5192,0.84401 1.266,2.1944z" fill="#ffffff" fill-opacity="1"></path></g><g><title>Path 3097</title><path d="M13.37904,38.37444v0v0v0v0v0h-1.6036c-0.0844,-0.50639 -0.1688,-0.6752 0.3376,-0.7596c0,-0.42199 0.0844,-1.3504 0,-1.77239c-0.0844,-0.67521 -0.844,-0.2532 -1.0972,-0.16881v1.9412c0.1688,0.0844 0.2532,0.1688 0.422,0.2532l-0.0844,0.59081v0h-1.688c-0.0844,-0.16881 -0.0844,-0.422 -0.0844,-0.59081l0.422,-0.1688c0,-1.9412 0.2532,-2.44761 -1.1816,-1.9412v1.9412c0.1688,0.0844 0.2532,0.0844 0.422,0.25319l-0.0844,0.59081v0h-1.688c-0.0844,-0.0844 -0.0844,0 -0.0844,-0.1688c0,-0.0844 0,-0.1688 0,-0.1688v0v-0.16879c0.0844,-0.08441 0.2532,-0.1688 0.422,-0.2532v-2.11c-0.1688,-0.0844 -0.2532,-0.0844 -0.422,-0.1688l0.0844,-0.59081c0.422,-0.0844 0.844,-0.0844 1.266,-0.0844v0.3376c0.3376,-0.1688 0.5908,-0.3376 1.0972,-0.3376c0.6752,0 0.7596,0.2532 1.0128,0.42199c0.3376,-0.16879 0.5064,-0.42199 1.0972,-0.42199c1.6036,0 1.3504,1.26601 1.3504,2.95401c0.422,-0.0844 0.3376,0.50639 0.0844,0.5908z" fill="#ffffff" fill-opacity="1"></path></g><g><title>Path 3098</title><path d="M15.8188,37.44604c-0.1688,0.1688 -0.3376,0.2532 -0.5908,0.2532c-0.2532,0 -0.422,-0.0844 -0.5064,-0.3376c-0.0844,-0.5908 0.5908,-0.5064 1.0128,-0.5064v0.5908zM17.2536,37.61485c-0.422,-0.0844 -0.422,0 -0.422,-0.422c0,-0.2532 0,-0.5908 0,-0.84401c0,-0.5064 0,-1.0972 -0.3376,-1.3504c-0.5064,-0.59079 -2.02559,-0.3376 -2.70079,0c0,1.0128 0,0.92841 0.844,0.92841l0.0844,-0.422c0.2532,-0.0844 0.5064,-0.0844 0.7596,0.0844c0.3376,0.0844 0.3376,0.422 0.3376,0.6752c-0.5908,0.0844 -1.0972,-0.0844 -1.6036,0.1688c-0.844,0.422 -0.6752,1.8568 0.5064,1.9412c0.6752,0.0844 1.0128,-0.16879 1.3504,-0.42199l0.0844,0.42199c1.266,0.0844 1.0972,-0.16879 1.0972,-0.7596z" fill="#ffffff" fill-opacity="1"></path></g><g><title>Path 3099</title><path d="M19.14702,38.37445v0h-1.688v0l-0.0844,-0.59079c0.0844,-0.0844 0.2532,-0.16881 0.422,-0.25321v-3.5448c-0.0844,-0.0844 -0.3376,-0.2532 -0.422,-0.2532l0.0844,-0.59079c0.422,-0.0844 0.9284,-0.0844 1.3504,-0.0844v4.4732c0.1688,0.0844 0.25319,0.0844 0.422,0.25321z" fill="#ffffff" fill-opacity="1"></path></g><g><title>Path 3100</title><path d="M21.31308,38.37445v0h-1.1816v0l-1.266,-1.8568c0.0844,-0.2532 0.6752,-0.844 0.75959,-1.0972c-0.2532,-0.2532 -0.08439,-0.33761 -0.08439,-0.7596h1.688v0l0.0844,0.5908c-0.5064,0.422 -0.422,0.0844 -0.75959,0.422c-0.1688,0.1688 -0.1688,0.1688 -0.2532,0.33761c-0.0844,0.08438 -0.1688,0.16879 -0.2532,0.3376c0.0844,0.16879 0.1688,0.2532 0.3376,0.42199c0.2532,0.3376 0.3376,0.59081 0.6752,0.7596c0.1688,0 0.3376,0.0844 0.5064,0.2532z" fill="#ffffff" fill-opacity="1"></path></g><g><title>Path 3101</title><path d="M23.38676,38.37445c-0.422,0 -0.844,0 -1.18159,0c-0.5908,0 -0.422,0 -0.5064,-0.08441c-0.0844,-0.1688 -0.0844,-0.33759 0,-0.50639l0.422,-0.16881v0v-2.0256v0l-0.5064,-0.3376v0l0.0844,-0.59079c0.3376,-0.16881 0.9284,-0.16881 1.3504,-0.08441v2.954c0.1688,0.0844 0.2532,0.1688 0.422,0.2532z" fill="#ffffff" fill-opacity="1"></path></g><g><title>Path 3102</title><path d="M25.12066,36.77084c-0.422,0 -0.844,0 -1.266,0c-0.0844,-0.25319 -0.1688,-0.5064 0.0844,-0.5908c0.3376,-0.2532 1.8568,-0.1688 2.2788,-0.1688l0.0844,0.50639c-0.5908,0.25321 -0.5064,0.25321 -1.1816,0.25321z" fill="#ffffff" fill-opacity="1"></path></g><g><title>Path 3103</title><path d="M32.80261,38.37444v0h-1.688v0l-0.0844,-0.5908c0.0844,-0.0844 0.2532,-0.1688 0.422,-0.2532c0,-1.688 0.2532,-2.53201 -1.1816,-1.9412v1.9412c0.1688,0.08439 0.2532,0.16879 0.422,0.2532l-0.08439,0.5908c-0.422,0 -0.844,0 -1.1816,0c-0.2532,0 -0.422,0.0844 -0.5064,-0.0844c-0.0844,-0.16879 -0.0844,-0.33759 0,-0.50639c0.0844,-0.0844 0.2532,-0.1688 0.3376,-0.2532c0,-1.7724 0.2532,-2.532 -1.1816,-1.9412v1.9412c0.1688,0.0844 0.2532,0.0844 0.422,0.2532l-0.0844,0.59081v0h-1.688v0l-0.08439,-0.59081c0.08439,-0.0844 0.25319,-0.1688 0.422,-0.2532v-2.0256c-0.1688,0 -0.2532,-0.0844 -0.422,-0.2532l0.08439,-0.5908c0.422,-0.0844 0.844,-0.0844 1.266,-0.0844v0.3376c0.3376,-0.2532 0.67519,-0.3376 1.09719,-0.3376c0.67521,0 0.75961,0.25319 1.0128,0.422c0.3376,-0.16881 0.59079,-0.422 1.09719,-0.422c1.60361,0 1.3504,1.266 1.3504,2.954c0.42199,0.16879 0.33759,0.33759 0.25319,0.84399z" fill="#ffffff" fill-opacity="1"></path></g><g><title>Path 3104</title><path d="M34.08236,37.36165c-0.0844,-0.5064 0.59079,-0.59081 1.0128,-0.5064v0.5908c-0.2532,0.2532 -0.84401,0.422 -1.0128,-0.0844zM36.19234,37.36165c0,-0.84401 0.1688,-2.1944 -0.50639,-2.6164c-0.6752,-0.422 -1.9412,-0.1688 -2.532,0.1688c-0.0844,1.09721 0.1688,0.9284 0.84401,0.9284l0.0844,-0.5064c0.2532,-0.08439 0.59079,-0.08439 0.7596,0.0844c0.2532,0.1688 0.1688,0.5064 0.1688,0.84401c-0.5064,0 -1.1816,-0.08441 -1.6036,0.16879c-0.3376,0.1688 -0.5908,0.6752 -0.50639,1.18161c0.25319,0.9284 1.77239,1.09719 2.27879,0.33759c0.08439,0.1688 0.16879,0.2532 0.16879,0.422c0.33761,0 0.84401,0 1.09721,-0.1688v-0.67521c-0.00001,0 -0.16881,0 -0.25321,-0.16879z" fill="#ffffff" fill-opacity="1"></path></g><g><title>Path 3105</title><path d="M38.51683,38.37444v0h-0.844v0h-0.844v0l-0.0844,-0.5908c0.0844,-0.0844 0.2532,-0.1688 0.422,-0.2532v-3.5448c-0.08439,-0.0844 -0.25319,-0.2532 -0.422,-0.2532l0.0844,-0.6752c0.422,-0.0844 0.92839,-0.0844 1.3504,-0.0844c0.0844,0.25319 0,2.954 0,3.46039v1.0128c0.1688,0 0.2532,0.0844 0.422,0.2532z" fill="#ffffff" fill-opacity="1"></path></g><g><title>Path 3106</title><path d="M40.6828,38.03684l-0.0844,0.33761v0h-1.1816c-0.08439,-0.08441 -1.18159,-1.8568 -1.266,-1.8568c0.0844,-0.2532 0.1688,-0.3376 0.422,-0.5908c0.1688,-0.1688 0.25319,-0.33759 0.42199,-0.5064c-0.25319,-0.33761 -0.0844,-0.33761 -0.0844,-0.7596h1.688v0l0.0844,0.5908c-0.67521,0.422 -0.422,0 -1.0128,0.75961c-0.0844,0.16879 -0.1688,0.16879 -0.2532,0.3376c0.0844,0.16879 0.5064,0.6752 0.6752,0.84399c0.2532,0.3376 0.0844,0.1688 0.5064,0.3376c0.08441,0.1688 0.08441,0.1688 0.08441,0.50639z" fill="#ffffff" fill-opacity="1"></path></g><g><title>Path 3107</title><path d="M42.202,38.37444c-0.33759,0 -0.844,0 -1.1816,0l-0.0844,-0.5064c0.0844,-0.3376 0.0844,-0.0844 0.422,-0.3376v-2.02561c-0.08439,-0.08439 -0.3376,-0.16879 -0.422,-0.2532l0.0844,-0.5908v0l0.422,-0.08439v0h0.92839v0v2.954c0.1688,0.0844 0.25319,0.0844 0.422,0.2532c-0.08439,0.67519 0,0.5908 -0.59079,0.5908z" fill="#ffffff" fill-opacity="1"></path></g><g><title>Path 3108</title><path d="M6.73725,0h32.27228c3.74292,0 6.73725,3.0384 6.73725,6.8364v16.2892c0,3.798 -2.99433,6.8364 -6.73725,6.8364h-32.27228c-3.74292,0.0844 -6.73725,-2.954 -6.73725,-6.752v-16.3736c0,-3.798 2.99434,-6.8364 6.73725,-6.8364z" fill="#ec3349" fill-opacity="1"></path></g><g><title>Path 3109</title><path d="M3.62919,7.23827c0.2532,-0.844 1.7724,-0.5908 1.7724,-0.3376l-0.0844,0.5908v0h-0.422v0l-0.0844,-0.3376c-0.2532,-0.0844 -0.5064,-0.0844 -0.5064,0.1688c-0.1688,0.6752 1.0972,0.2532 1.266,1.0972c0.2532,1.1816 -1.3504,1.3504 -1.9412,0.844c0,-0.1688 0,-0.422 0.0844,-0.5908h0.422v0l0.0844,0.3376c0.422,0.1688 0.7596,0.0844 0.6752,-0.422c-0.3376,-0.3376 -1.5192,-0.3376 -1.266,-1.3504z" fill="#ffffff" fill-opacity="1"></path></g><g><title>Path 3110</title><path d="M5.99239,7.15404l-0.2532,-0.0844v0l0.0844,-0.422v0h0.9284v0v0.3376v0l-0.1688,0.2532c0,0.9284 -0.1688,2.0256 0.5908,1.7724c0.3376,-0.0844 0.2532,-0.5908 0.2532,-0.9284c0,-1.0972 0.0844,-0.7596 -0.2532,-1.0128l0.0844,-0.3376v0h0.844v0v0.3376v0l-0.1688,0.0844c0,0.422 0.0844,1.3504 0,1.688c-0.0844,0.5064 -0.422,0.6752 -1.0128,0.6752c-1.266,0 -0.9284,-1.0972 -0.9284,-2.3632z" fill="#ffffff" fill-opacity="1"></path></g><g><title>Path 3111</title><path d="M8.90374,7.3221c-0.0844,0.6752 1.1816,0.2532 1.3504,1.0972c0.1688,1.0972 -1.3504,1.3504 -1.9412,0.844c0,-0.1688 0,-0.422 0.0844,-0.5908h0.422c0.0844,0.3376 0,0.422 0.422,0.422c0.2532,0 0.5064,-0.1688 0.3376,-0.5064c-0.1688,-0.2532 -0.844,-0.1688 -1.0972,-0.5908c-0.2532,-0.3376 -0.1688,-0.844 0.1688,-1.0972l0.0844,-0.0844c0.3376,-0.1688 1.1816,-0.1688 1.4348,0.1688l-0.1688,0.5064v0h-0.422v0l-0.0844,-0.3376c-0.2532,-0.0844 -0.5908,-0.0844 -0.5908,0.1688z" fill="#ffffff" fill-opacity="1"></path></g><g><title>Path 3112</title><path d="M11.23438,7.82815h0.844c0,-0.1688 0.0844,-0.5064 -0.0844,-0.5908c-0.1688,-0.1688 -0.2532,0 -0.1688,-0.5064h0.9284v0l0.0844,0.3376v0l-0.2532,0.1688v0v1.8568v0l0.2532,0.0844v0l-0.0844,0.3376v0h-0.9284v0v-0.3376c0.2532,-0.2532 0.1688,0 0.1688,-0.9284h-0.844c0,0.844 -0.0844,0.7596 0.2532,0.9284l-0.0844,0.3376v0h-0.9284v0v-0.3376c0.3376,-0.2532 0.1688,-0.0844 0.1688,-1.266c0,-0.844 0.0844,-0.5908 -0.2532,-0.844v-0.3376v0h0.9284v0l0.0844,0.3376c-0.1688,0.1688 -0.0844,0.0844 -0.0844,0.7596z" fill="#ffffff" fill-opacity="1"></path></g><g><title>Path 3113</title><path d="M13.98222,7.23844v1.688c0.0844,0.1688 0.0844,0.0844 0.2532,0.1688l-0.0844,0.422v0h-0.9284c-0.0844,-0.5908 0,-0.2532 0.1688,-0.5064v-1.8568v0l-0.2532,-0.1688v0l0.0844,-0.3376v0h0.9284c0.0844,0.5908 -0.0844,0.3376 -0.1688,0.5908z" fill="#ffffff" fill-opacity="1"></path></g><g><title>Path 3114</title><path d="M17.97908,20.12711c0.1688,1.6036 -1.18159,1.1816 -1.266,0.5064" fill="#ffffff" fill-opacity="1"></path></g><g><title>Path 3115</title><path d="M18.06157,21.89886c-1.94119,0.5064 -2.7008,-2.7008 -0.6752,-3.1228M19.91836,21.30806c0.0844,-0.2532 0.5064,-0.6752 0.5908,-0.7596c-1.0128,-1.9412 -2.3632,-3.2916 -4.3044,-4.22c-1.0128,-0.5064 -2.11,-0.844 -3.29159,-1.0128c-0.7596,-0.1688 -3.0384,-0.5064 -3.71359,-0.5908c0.0844,0.2532 0.9284,1.5192 1.0972,1.688c0.3376,0.422 1.0972,0.1688 1.6036,-0.08441c0.2532,-0.0844 0.2532,-0.1688 0.422,0c-0.0844,0.1688 -0.2532,0.25321 -0.3376,0.3376c-1.688,1.266 -3.37599,2.7008 -5.06399,3.9668c-0.5064,0.3376 -0.5064,0.5064 -0.844,0.422c-0.0844,-0.844 0.5908,-1.9412 -0.1688,-3.376c-0.2532,-0.422 -0.5908,-0.7596 -0.9284,-1.0128c-0.422,-0.3376 -1.0128,-0.422 -1.5192,-0.422c0.1688,0.9284 -0.0844,1.8568 0,2.7008c0.1688,1.0972 0.6752,1.266 1.1816,1.688c-0.6752,0.422 -1.0972,0.5064 -1.0972,1.68801c-0.1688,0.9284 -0.1688,1.8568 -0.1688,2.70079c0.3376,0 1.0128,-0.25319 1.266,-0.33759c1.3504,-0.6752 1.5192,-1.7724 1.688,-3.0384l1.688,1.1816c3.71359,2.7008 8.01799,5.9924 11.47838,1.1816c0.1688,-0.2532 1.0128,-1.5192 1.0128,-1.8568c-0.3376,-0.1688 -0.844,-0.2532 -0.5908,-0.844z" fill="#ffffff" fill-opacity="1"></path></g><g><title>Path 3116</title><path d="M19.20002,10.90569v0l1.1816,-0.5064c0.33759,-0.1688 1.3504,-0.7596 1.51919,-0.1688c0.08441,0.2532 -0.42199,0.3376 -0.5908,0.422c-0.844,0.3376 -1.7724,1.0128 -2.3632,0.422c0,-0.0844 0.0844,-0.0844 0.2532,-0.1688z" fill="#ffffff" fill-opacity="1"></path></g><g><title>Path 3117</title><path d="M23.06638,7.0052c0.33759,0.1688 0.422,0.5908 0.2532,0.844c-0.2532,0.0844 -2.954,-0.0844 -3.376,-0.3376c-0.0844,-0.0844 -0.5064,-0.6752 -0.3376,-0.7596c0.0844,-0.1688 3.2916,0.1688 3.4604,0.2532z" fill="#ffffff" fill-opacity="1"></path></g><g><title>Path 3118</title><path d="M23.28181,3.4604c-0.3376,-0.422 -0.5064,-0.5908 -0.422,-1.3504c0.3376,0.0844 1.0972,1.0972 1.266,1.3504c0.422,0.5908 1.1816,1.0972 0.5908,1.5192c-0.2532,0 -0.2532,-0.0844 -0.3376,-0.2532z" fill="#ffffff" fill-opacity="1"></path></g><g><title>Path 3119</title><path d="M37.42961,4.8952c-0.3376,0.1688 -0.75961,0 -0.84401,-0.3376v0c-0.08439,-0.3376 0,-0.6752 0.3376,-0.844c0.75961,-0.3376 1.3504,0.844 0.50641,1.1816z" fill="#ffffff" fill-opacity="1"></path></g><g><title>Path 3120</title><path d="M33.55348,5.064c-0.7468,0.3376 -0.24893,1.266 0.41488,1.0128M38.864,6.6676c-1.41061,0.2532 -2.73824,-0.5908 -3.07016,-2.0256v-0.0844c-0.24892,-1.6036 0.7468,-2.7852 1.99145,-3.0384c1.57656,-0.3376 2.73823,0.844 2.98716,2.0256c0.33191,1.5192 -0.58084,2.7852 -1.90846,3.1228zM33.4705,7.596c-2.32335,0.2532 -2.82121,-3.2916 -0.41488,-3.6292c0.99572,-0.0844 1.90846,0.5908 1.99144,1.6036c0.08298,1.0128 -0.66382,1.9412 -1.57656,2.0256zM39.02994,0c0.00392,0 0.00783,0 0.01173,0c-0.00391,-0.00001 -0.00782,-0.00001 -0.01173,-0.00001zM36.78957,0c-0.16595,0.0844 -1.16168,0.422 -1.49358,0.5064c-0.49786,0.1688 -0.91274,0.422 -1.32762,0.5908c-1.16167,0.5064 -1.49359,0.844 -2.40633,1.4348c-0.16596,-0.0844 -0.49786,-0.422 -0.66382,-0.5064c-0.16595,-0.1688 -0.41488,-0.3376 -0.66382,-0.5064c-0.41488,-0.3376 -0.91274,-0.5908 -1.4106,-0.9284c-0.33191,1.3504 0.16596,2.954 0.33191,3.9668c0,0.2532 0.08298,0.0844 -0.08298,0.2532l-0.49786,0.5908c-0.41488,0.5908 -0.74679,1.266 -0.99572,1.9412c-0.24893,0.7596 -2.65526,1.4348 -3.73395,2.11c-0.82977,0.5064 -0.99573,0.6752 -0.91274,2.0256c0.24893,4.1356 2.32335,10.2124 4.39777,13.3352c0.41489,0.5908 0.82977,1.0972 1.24465,1.688c1.41061,1.6036 3.73395,2.4476 5.97433,2.7852v0.6752h1.24465v-0.5064l1.82549,0.1688v0.3376c0.06716,0 0.94957,0 1.32762,0v-0.3376c0.82977,0 1.65954,-0.0844 2.57228,-0.0844c1.88932,-0.75198 3.2907,-2.24838 3.96267,-4.24356c-0.02456,0.03228 -0.06277,0.05069 -0.06277,0.10796c-0.08297,-0.9284 -1.49357,-1.7724 -2.4893,-1.1816c-1.0787,0.5908 -0.16596,2.4476 -0.08297,2.954c-1.24466,0.1688 -2.48931,0.2532 -3.65098,0.2532c0,-0.7596 0.24894,-1.1816 -0.08297,-1.9412c-0.24893,-0.5064 -0.66381,-0.844 -1.16168,-0.9284c-1.41061,-0.3376 -1.57656,1.6036 -1.65954,2.532c-0.24892,0 -1.24464,-0.2532 -1.49358,-0.3376c-0.49786,-0.1688 -0.99572,-0.422 -1.32763,-0.5064c0.08299,-0.2532 0.66382,-0.7596 0.82977,-1.5192c0.08298,-0.5908 -0.16595,-1.266 -0.66381,-1.6036c-0.82977,-0.6752 -1.74252,0.3376 -2.24039,0.9284c-0.08296,0.1688 -0.3319,0.5908 -0.49785,0.6752c-0.58084,-0.5064 -0.82977,-0.6752 -1.32763,-1.266c-1.32763,-1.6036 -1.99144,-2.7008 -2.82121,-4.9796c-0.49786,-1.5192 -0.99572,-3.9668 -0.91274,-5.6548c0.08297,-0.5908 0.08297,-0.5908 0.58084,-0.7596c0.41488,-0.1688 1.57655,-0.5064 1.99144,-0.5064c0.08298,1.266 0.66381,2.3632 1.99144,2.2788c0.66382,-0.0844 0.99572,-0.5064 1.0787,-1.0972c0.08297,-0.7596 -0.16595,-1.1816 -0.16595,-1.8568l2.82121,-0.5908c0,1.3504 0.58084,2.532 1.99144,2.532c1.49359,-0.0844 1.0787,-1.9412 0.82977,-3.1228l2.98717,-0.5908c0,1.4348 0.49786,2.7008 1.99144,2.7008c1.82549,-0.0844 0.99572,-2.6164 0.91274,-3.2072l2.65525,-0.422c0,0.6752 0.08298,1.6036 0.4149,2.0256c0.08297,0.2532 0.08297,1.5192 0.08297,3.0384v-6.41441c-0.24868,-3.79402 -3.22985,-6.83003 -6.95833,-6.83639c4.37967,0 2.57538,0 0,0c-3.31142,0 -7.89766,0 -2.2521,0zM45.48192,25.29644c0.01164,-0.0153 0.02021,-0.03371 0.02021,-0.06084c-0.00666,0.02033 -0.0134,0.04061 -0.02021,0.06084z" fill="#ffffff" fill-opacity="1"></path></g></g></g></svg>