<svg width="100" height="100" viewBox="0 0 100 100" fill="none" xmlns="http://www.w3.org/2000/svg">
<path d="M85.3555 64.6445C79.9096 59.1988 73.4275 55.1674 66.3553 52.727C73.9299 47.51 78.9062 38.7789 78.9062 28.9062C78.9062 12.9674 65.9389 0 50 0C34.0611 0 21.0938 12.9674 21.0938 28.9062C21.0938 38.7789 26.0701 47.51 33.6449 52.727C26.5727 55.1674 20.0906 59.1988 14.6447 64.6445C5.20098 74.0885 0 86.6445 0 100H7.8125C7.8125 76.7377 26.7377 57.8125 50 57.8125C73.2623 57.8125 92.1875 76.7377 92.1875 100H100C100 86.6445 94.799 74.0885 85.3555 64.6445ZM50 50C38.3689 50 28.9062 40.5375 28.9062 28.9062C28.9062 17.275 38.3689 7.8125 50 7.8125C61.6311 7.8125 71.0938 17.275 71.0938 28.9062C71.0938 40.5375 61.6311 50 50 50Z" fill="white"/>
</svg>
